<?xml version="1.0" encoding="UTF-8"?>
<svg width="114px" height="152px" viewBox="0 0 114 152" version="1.1" xmlns="http://www.w3.org/2000/svg" xmlns:xlink="http://www.w3.org/1999/xlink">
    <!-- Generator: Sketch 52.5 (67469) - http://www.bohemiancoding.com/sketch -->
    <title>Group 54</title>
    <desc>Created with Sketch.</desc>
    <defs>
        <polygon id="path-1" points="0 0.001 113.9995 0.001 113.9995 152.001 0 152.001"></polygon>
    </defs>
    <g id="Page-1" stroke="none" stroke-width="1" fill="none" fill-rule="evenodd">
        <g id="08-copy-2" transform="translate(-43.000000, -389.000000)">
            <g id="Group-54" transform="translate(43.000000, 389.000000)">
                <mask id="mask-2" fill="white">
                    <use xlink:href="#path-1"></use>
                </mask>
                <g id="Clip-2"></g>
                <path d="M2,150.001 L56,150.001 L56,42.001 L2,42.001 L2,150.001 Z M0,151.001 L0,41.001 C0,40.448 0.447,40.001 1,40.001 L57,40.001 C57.553,40.001 58,40.448 58,41.001 L58,151.001 C58,151.554 57.553,152.001 57,152.001 L1,152.001 C0.447,152.001 0,151.554 0,151.001 Z" id="Fill-1" fill="#FEFEFE" mask="url(#mask-2)"></path>
                <path d="M111.9995,41.4605 L84.9995,18.3175 L57.9995,41.4605 L57.9995,150.0015 L111.9995,150.0015 L111.9995,41.4605 Z M55.9995,151.0015 L55.9995,41.0005 C55.9995,40.7085 56.1275,40.4315 56.3495,40.2415 L84.3495,16.2415 C84.7245,15.9195 85.2755,15.9195 85.6505,16.2415 L113.6505,40.2415 C113.8725,40.4315 113.9995,40.7085 113.9995,41.0005 L113.9995,151.0015 C113.9995,151.5535 113.5525,152.0015 112.9995,152.0015 L56.9995,152.0015 C56.4475,152.0015 55.9995,151.5535 55.9995,151.0015 Z" id="Fill-3" fill="#FEFEFE" mask="url(#mask-2)"></path>
                <path d="M34,94.001 L40,94.001 L40,84.001 L34,84.001 L34,94.001 Z M32,95.001 L32,83.001 C32,82.448 32.447,82.001 33,82.001 L41,82.001 C41.553,82.001 42,82.448 42,83.001 L42,95.001 C42,95.554 41.553,96.001 41,96.001 L33,96.001 C32.447,96.001 32,95.554 32,95.001 Z" id="Fill-4" fill="#FEFEFE" mask="url(#mask-2)"></path>
                <path d="M42,94.001 L48,94.001 L48,84.001 L42,84.001 L42,94.001 Z M40,95.001 L40,83.001 C40,82.448 40.447,82.001 41,82.001 L49,82.001 C49.553,82.001 50,82.448 50,83.001 L50,95.001 C50,95.554 49.553,96.001 49,96.001 L41,96.001 C40.447,96.001 40,95.554 40,95.001 Z" id="Fill-5" fill="#FEFEFE" mask="url(#mask-2)"></path>
                <path d="M34,106.001 L40,106.001 L40,96.001 L34,96.001 L34,106.001 Z M32,107.001 L32,95.001 C32,94.448 32.447,94.001 33,94.001 L41,94.001 C41.553,94.001 42,94.448 42,95.001 L42,107.001 C42,107.554 41.553,108.001 41,108.001 L33,108.001 C32.447,108.001 32,107.554 32,107.001 Z" id="Fill-6" fill="#FEFEFE" mask="url(#mask-2)"></path>
                <path d="M42,106.001 L48,106.001 L48,96.001 L42,96.001 L42,106.001 Z M40,107.001 L40,95.001 C40,94.448 40.447,94.001 41,94.001 L49,94.001 C49.553,94.001 50,94.448 50,95.001 L50,107.001 C50,107.554 49.553,108.001 49,108.001 L41,108.001 C40.447,108.001 40,107.554 40,107.001 Z" id="Fill-7" fill="#FEFEFE" mask="url(#mask-2)"></path>
                <path d="M34,126.001 L40,126.001 L40,116.001 L34,116.001 L34,126.001 Z M32,127.001 L32,115.001 C32,114.448 32.447,114.001 33,114.001 L41,114.001 C41.553,114.001 42,114.448 42,115.001 L42,127.001 C42,127.554 41.553,128.001 41,128.001 L33,128.001 C32.447,128.001 32,127.554 32,127.001 Z" id="Fill-8" fill="#FEFEFE" mask="url(#mask-2)"></path>
                <path d="M42,126.001 L48,126.001 L48,116.001 L42,116.001 L42,126.001 Z M40,127.001 L40,115.001 C40,114.448 40.447,114.001 41,114.001 L49,114.001 C49.553,114.001 50,114.448 50,115.001 L50,127.001 C50,127.554 49.553,128.001 49,128.001 L41,128.001 C40.447,128.001 40,127.554 40,127.001 Z" id="Fill-9" fill="#FEFEFE" mask="url(#mask-2)"></path>
                <path d="M34,138.001 L40,138.001 L40,128.001 L34,128.001 L34,138.001 Z M32,139.001 L32,127.001 C32,126.448 32.447,126.001 33,126.001 L41,126.001 C41.553,126.001 42,126.448 42,127.001 L42,139.001 C42,139.554 41.553,140.001 41,140.001 L33,140.001 C32.447,140.001 32,139.554 32,139.001 Z" id="Fill-10" fill="#FEFEFE" mask="url(#mask-2)"></path>
                <path d="M42,138.001 L48,138.001 L48,128.001 L42,128.001 L42,138.001 Z M40,139.001 L40,127.001 C40,126.448 40.447,126.001 41,126.001 L49,126.001 C49.553,126.001 50,126.448 50,127.001 L50,139.001 C50,139.554 49.553,140.001 49,140.001 L41,140.001 C40.447,140.001 40,139.554 40,139.001 Z" id="Fill-11" fill="#FEFEFE" mask="url(#mask-2)"></path>
                <path d="M10,94.001 L16,94.001 L16,84.001 L10,84.001 L10,94.001 Z M8,95.001 L8,83.001 C8,82.448 8.447,82.001 9,82.001 L17,82.001 C17.553,82.001 18,82.448 18,83.001 L18,95.001 C18,95.554 17.553,96.001 17,96.001 L9,96.001 C8.447,96.001 8,95.554 8,95.001 Z" id="Fill-12" fill="#FEFEFE" mask="url(#mask-2)"></path>
                <path d="M18,94.001 L24,94.001 L24,84.001 L18,84.001 L18,94.001 Z M16,95.001 L16,83.001 C16,82.448 16.447,82.001 17,82.001 L25,82.001 C25.553,82.001 26,82.448 26,83.001 L26,95.001 C26,95.554 25.553,96.001 25,96.001 L17,96.001 C16.447,96.001 16,95.554 16,95.001 Z" id="Fill-13" fill="#FEFEFE" mask="url(#mask-2)"></path>
                <path d="M10,106.001 L16,106.001 L16,96.001 L10,96.001 L10,106.001 Z M8,107.001 L8,95.001 C8,94.448 8.447,94.001 9,94.001 L17,94.001 C17.553,94.001 18,94.448 18,95.001 L18,107.001 C18,107.554 17.553,108.001 17,108.001 L9,108.001 C8.447,108.001 8,107.554 8,107.001 Z" id="Fill-14" fill="#FEFEFE" mask="url(#mask-2)"></path>
                <path d="M18,106.001 L24,106.001 L24,96.001 L18,96.001 L18,106.001 Z M16,107.001 L16,95.001 C16,94.448 16.447,94.001 17,94.001 L25,94.001 C25.553,94.001 26,94.448 26,95.001 L26,107.001 C26,107.554 25.553,108.001 25,108.001 L17,108.001 C16.447,108.001 16,107.554 16,107.001 Z" id="Fill-15" fill="#FEFEFE" mask="url(#mask-2)"></path>
                <path d="M34,62.001 L40,62.001 L40,52.001 L34,52.001 L34,62.001 Z M32,63.001 L32,51.001 C32,50.448 32.447,50.001 33,50.001 L41,50.001 C41.553,50.001 42,50.448 42,51.001 L42,63.001 C42,63.554 41.553,64.001 41,64.001 L33,64.001 C32.447,64.001 32,63.554 32,63.001 Z" id="Fill-16" fill="#FEFEFE" mask="url(#mask-2)"></path>
                <path d="M42,62.001 L48,62.001 L48,52.001 L42,52.001 L42,62.001 Z M40,63.001 L40,51.001 C40,50.448 40.447,50.001 41,50.001 L49,50.001 C49.553,50.001 50,50.448 50,51.001 L50,63.001 C50,63.554 49.553,64.001 49,64.001 L41,64.001 C40.447,64.001 40,63.554 40,63.001 Z" id="Fill-17" fill="#FEFEFE" mask="url(#mask-2)"></path>
                <path d="M34,74.001 L40,74.001 L40,64.001 L34,64.001 L34,74.001 Z M32,75.001 L32,63.001 C32,62.448 32.447,62.001 33,62.001 L41,62.001 C41.553,62.001 42,62.448 42,63.001 L42,75.001 C42,75.554 41.553,76.001 41,76.001 L33,76.001 C32.447,76.001 32,75.554 32,75.001 Z" id="Fill-18" fill="#FEFEFE" mask="url(#mask-2)"></path>
                <path d="M42,74.001 L48,74.001 L48,64.001 L42,64.001 L42,74.001 Z M40,75.001 L40,63.001 C40,62.448 40.447,62.001 41,62.001 L49,62.001 C49.553,62.001 50,62.448 50,63.001 L50,75.001 C50,75.554 49.553,76.001 49,76.001 L41,76.001 C40.447,76.001 40,75.554 40,75.001 Z" id="Fill-19" fill="#FEFEFE" mask="url(#mask-2)"></path>
                <path d="M10,62.001 L16,62.001 L16,52.001 L10,52.001 L10,62.001 Z M8,63.001 L8,51.001 C8,50.448 8.447,50.001 9,50.001 L17,50.001 C17.553,50.001 18,50.448 18,51.001 L18,63.001 C18,63.554 17.553,64.001 17,64.001 L9,64.001 C8.447,64.001 8,63.554 8,63.001 Z" id="Fill-20" fill="#FEFEFE" mask="url(#mask-2)"></path>
                <path d="M18,62.001 L24,62.001 L24,52.001 L18,52.001 L18,62.001 Z M16,63.001 L16,51.001 C16,50.448 16.447,50.001 17,50.001 L25,50.001 C25.553,50.001 26,50.448 26,51.001 L26,63.001 C26,63.554 25.553,64.001 25,64.001 L17,64.001 C16.447,64.001 16,63.554 16,63.001 Z" id="Fill-21" fill="#FEFEFE" mask="url(#mask-2)"></path>
                <path d="M10,74.001 L16,74.001 L16,64.001 L10,64.001 L10,74.001 Z M8,75.001 L8,63.001 C8,62.448 8.447,62.001 9,62.001 L17,62.001 C17.553,62.001 18,62.448 18,63.001 L18,75.001 C18,75.554 17.553,76.001 17,76.001 L9,76.001 C8.447,76.001 8,75.554 8,75.001 Z" id="Fill-22" fill="#FEFEFE" mask="url(#mask-2)"></path>
                <path d="M18,74.001 L24,74.001 L24,64.001 L18,64.001 L18,74.001 Z M16,75.001 L16,63.001 C16,62.448 16.447,62.001 17,62.001 L25,62.001 C25.553,62.001 26,62.448 26,63.001 L26,75.001 C26,75.554 25.553,76.001 25,76.001 L17,76.001 C16.447,76.001 16,75.554 16,75.001 Z" id="Fill-23" fill="#FEFEFE" mask="url(#mask-2)"></path>
                <path d="M10,126.001 L16,126.001 L16,116.001 L10,116.001 L10,126.001 Z M8,127.001 L8,115.001 C8,114.448 8.447,114.001 9,114.001 L17,114.001 C17.553,114.001 18,114.448 18,115.001 L18,127.001 C18,127.554 17.553,128.001 17,128.001 L9,128.001 C8.447,128.001 8,127.554 8,127.001 Z" id="Fill-24" fill="#FEFEFE" mask="url(#mask-2)"></path>
                <path d="M18,126.001 L24,126.001 L24,116.001 L18,116.001 L18,126.001 Z M16,127.001 L16,115.001 C16,114.448 16.447,114.001 17,114.001 L25,114.001 C25.553,114.001 26,114.448 26,115.001 L26,127.001 C26,127.554 25.553,128.001 25,128.001 L17,128.001 C16.447,128.001 16,127.554 16,127.001 Z" id="Fill-25" fill="#FEFEFE" mask="url(#mask-2)"></path>
                <path d="M10,138.001 L16,138.001 L16,128.001 L10,128.001 L10,138.001 Z M8,139.001 L8,127.001 C8,126.448 8.447,126.001 9,126.001 L17,126.001 C17.553,126.001 18,126.448 18,127.001 L18,139.001 C18,139.554 17.553,140.001 17,140.001 L9,140.001 C8.447,140.001 8,139.554 8,139.001 Z" id="Fill-26" fill="#FEFEFE" mask="url(#mask-2)"></path>
                <path d="M18,138.001 L24,138.001 L24,128.001 L18,128.001 L18,138.001 Z M16,139.001 L16,127.001 C16,126.448 16.447,126.001 17,126.001 L25,126.001 C25.553,126.001 26,126.448 26,127.001 L26,139.001 C26,139.554 25.553,140.001 25,140.001 L17,140.001 C16.447,140.001 16,139.554 16,139.001 Z" id="Fill-27" fill="#FEFEFE" mask="url(#mask-2)"></path>
                <path d="M66,94.001 L72,94.001 L72,84.001 L66,84.001 L66,94.001 Z M64,95.001 L64,83.001 C64,82.448 64.447,82.001 65,82.001 L73,82.001 C73.552,82.001 74,82.448 74,83.001 L74,95.001 C74,95.554 73.552,96.001 73,96.001 L65,96.001 C64.447,96.001 64,95.554 64,95.001 Z" id="Fill-28" fill="#FEFEFE" mask="url(#mask-2)"></path>
                <path d="M74,94.001 L80,94.001 L80,84.001 L74,84.001 L74,94.001 Z M72,95.001 L72,83.001 C72,82.448 72.448,82.001 73,82.001 L81,82.001 C81.552,82.001 82,82.448 82,83.001 L82,95.001 C82,95.554 81.552,96.001 81,96.001 L73,96.001 C72.448,96.001 72,95.554 72,95.001 Z" id="Fill-29" fill="#FEFEFE" mask="url(#mask-2)"></path>
                <path d="M66,106.001 L72,106.001 L72,96.001 L66,96.001 L66,106.001 Z M64,107.001 L64,95.001 C64,94.448 64.447,94.001 65,94.001 L73,94.001 C73.552,94.001 74,94.448 74,95.001 L74,107.001 C74,107.554 73.552,108.001 73,108.001 L65,108.001 C64.447,108.001 64,107.554 64,107.001 Z" id="Fill-30" fill="#FEFEFE" mask="url(#mask-2)"></path>
                <path d="M74,106.001 L80,106.001 L80,96.001 L74,96.001 L74,106.001 Z M72,107.001 L72,95.001 C72,94.448 72.448,94.001 73,94.001 L81,94.001 C81.552,94.001 82,94.448 82,95.001 L82,107.001 C82,107.554 81.552,108.001 81,108.001 L73,108.001 C72.448,108.001 72,107.554 72,107.001 Z" id="Fill-31" fill="#FEFEFE" mask="url(#mask-2)"></path>
                <path d="M90,94.001 L96,94.001 L96,84.001 L90,84.001 L90,94.001 Z M88,95.001 L88,83.001 C88,82.448 88.448,82.001 89,82.001 L97,82.001 C97.552,82.001 98,82.448 98,83.001 L98,95.001 C98,95.554 97.552,96.001 97,96.001 L89,96.001 C88.448,96.001 88,95.554 88,95.001 Z" id="Fill-32" fill="#FEFEFE" mask="url(#mask-2)"></path>
                <path d="M98,94.001 L104,94.001 L104,84.001 L98,84.001 L98,94.001 Z M96,95.001 L96,83.001 C96,82.448 96.448,82.001 97,82.001 L105,82.001 C105.552,82.001 106,82.448 106,83.001 L106,95.001 C106,95.554 105.552,96.001 105,96.001 L97,96.001 C96.448,96.001 96,95.554 96,95.001 Z" id="Fill-33" fill="#FEFEFE" mask="url(#mask-2)"></path>
                <path d="M90,106.001 L96,106.001 L96,96.001 L90,96.001 L90,106.001 Z M88,107.001 L88,95.001 C88,94.448 88.448,94.001 89,94.001 L97,94.001 C97.552,94.001 98,94.448 98,95.001 L98,107.001 C98,107.554 97.552,108.001 97,108.001 L89,108.001 C88.448,108.001 88,107.554 88,107.001 Z" id="Fill-34" fill="#FEFEFE" mask="url(#mask-2)"></path>
                <path d="M98,106.001 L104,106.001 L104,96.001 L98,96.001 L98,106.001 Z M96,107.001 L96,95.001 C96,94.448 96.448,94.001 97,94.001 L105,94.001 C105.552,94.001 106,94.448 106,95.001 L106,107.001 C106,107.554 105.552,108.001 105,108.001 L97,108.001 C96.448,108.001 96,107.554 96,107.001 Z" id="Fill-35" fill="#FEFEFE" mask="url(#mask-2)"></path>
                <path d="M66,62.001 L72,62.001 L72,52.001 L66,52.001 L66,62.001 Z M64,63.001 L64,51.001 C64,50.448 64.447,50.001 65,50.001 L73,50.001 C73.552,50.001 74,50.448 74,51.001 L74,63.001 C74,63.554 73.552,64.001 73,64.001 L65,64.001 C64.447,64.001 64,63.554 64,63.001 Z" id="Fill-36" fill="#FEFEFE" mask="url(#mask-2)"></path>
                <path d="M74,62.001 L80,62.001 L80,52.001 L74,52.001 L74,62.001 Z M72,63.001 L72,51.001 C72,50.448 72.448,50.001 73,50.001 L81,50.001 C81.552,50.001 82,50.448 82,51.001 L82,63.001 C82,63.554 81.552,64.001 81,64.001 L73,64.001 C72.448,64.001 72,63.554 72,63.001 Z" id="Fill-37" fill="#FEFEFE" mask="url(#mask-2)"></path>
                <path d="M66,74.001 L72,74.001 L72,64.001 L66,64.001 L66,74.001 Z M64,75.001 L64,63.001 C64,62.448 64.447,62.001 65,62.001 L73,62.001 C73.552,62.001 74,62.448 74,63.001 L74,75.001 C74,75.554 73.552,76.001 73,76.001 L65,76.001 C64.447,76.001 64,75.554 64,75.001 Z" id="Fill-38" fill="#FEFEFE" mask="url(#mask-2)"></path>
                <path d="M74,74.001 L80,74.001 L80,64.001 L74,64.001 L74,74.001 Z M72,75.001 L72,63.001 C72,62.448 72.448,62.001 73,62.001 L81,62.001 C81.552,62.001 82,62.448 82,63.001 L82,75.001 C82,75.554 81.552,76.001 81,76.001 L73,76.001 C72.448,76.001 72,75.554 72,75.001 Z" id="Fill-39" fill="#FEFEFE" mask="url(#mask-2)"></path>
                <path d="M90,62.001 L96,62.001 L96,52.001 L90,52.001 L90,62.001 Z M88,63.001 L88,51.001 C88,50.448 88.448,50.001 89,50.001 L97,50.001 C97.552,50.001 98,50.448 98,51.001 L98,63.001 C98,63.554 97.552,64.001 97,64.001 L89,64.001 C88.448,64.001 88,63.554 88,63.001 Z" id="Fill-40" fill="#FEFEFE" mask="url(#mask-2)"></path>
                <path d="M98,62.001 L104,62.001 L104,52.001 L98,52.001 L98,62.001 Z M96,63.001 L96,51.001 C96,50.448 96.448,50.001 97,50.001 L105,50.001 C105.552,50.001 106,50.448 106,51.001 L106,63.001 C106,63.554 105.552,64.001 105,64.001 L97,64.001 C96.448,64.001 96,63.554 96,63.001 Z" id="Fill-41" fill="#FEFEFE" mask="url(#mask-2)"></path>
                <path d="M90,74.001 L96,74.001 L96,64.001 L90,64.001 L90,74.001 Z M88,75.001 L88,63.001 C88,62.448 88.448,62.001 89,62.001 L97,62.001 C97.552,62.001 98,62.448 98,63.001 L98,75.001 C98,75.554 97.552,76.001 97,76.001 L89,76.001 C88.448,76.001 88,75.554 88,75.001 Z" id="Fill-42" fill="#FEFEFE" mask="url(#mask-2)"></path>
                <path d="M98,74.001 L104,74.001 L104,64.001 L98,64.001 L98,74.001 Z M96,75.001 L96,63.001 C96,62.448 96.448,62.001 97,62.001 L105,62.001 C105.552,62.001 106,62.448 106,63.001 L106,75.001 C106,75.554 105.552,76.001 105,76.001 L97,76.001 C96.448,76.001 96,75.554 96,75.001 Z" id="Fill-43" fill="#FEFEFE" mask="url(#mask-2)"></path>
                <path d="M66,126.001 L72,126.001 L72,116.001 L66,116.001 L66,126.001 Z M64,127.001 L64,115.001 C64,114.448 64.448,114.001 65,114.001 L73,114.001 C73.552,114.001 74,114.448 74,115.001 L74,127.001 C74,127.554 73.552,128.001 73,128.001 L65,128.001 C64.448,128.001 64,127.554 64,127.001 Z" id="Fill-44" fill="#FEFEFE" mask="url(#mask-2)"></path>
                <path d="M74,126.001 L80,126.001 L80,116.001 L74,116.001 L74,126.001 Z M72,127.001 L72,115.001 C72,114.448 72.448,114.001 73,114.001 L81,114.001 C81.552,114.001 82,114.448 82,115.001 L82,127.001 C82,127.554 81.552,128.001 81,128.001 L73,128.001 C72.448,128.001 72,127.554 72,127.001 Z" id="Fill-45" fill="#FEFEFE" mask="url(#mask-2)"></path>
                <path d="M66,138.001 L72,138.001 L72,128.001 L66,128.001 L66,138.001 Z M64,139.001 L64,127.001 C64,126.448 64.448,126.001 65,126.001 L73,126.001 C73.552,126.001 74,126.448 74,127.001 L74,139.001 C74,139.554 73.552,140.001 73,140.001 L65,140.001 C64.448,140.001 64,139.554 64,139.001 Z" id="Fill-46" fill="#FEFEFE" mask="url(#mask-2)"></path>
                <path d="M74,138.001 L80,138.001 L80,128.001 L74,128.001 L74,138.001 Z M72,139.001 L72,127.001 C72,126.448 72.448,126.001 73,126.001 L81,126.001 C81.552,126.001 82,126.448 82,127.001 L82,139.001 C82,139.554 81.552,140.001 81,140.001 L73,140.001 C72.448,140.001 72,139.554 72,139.001 Z" id="Fill-47" fill="#FEFEFE" mask="url(#mask-2)"></path>
                <path d="M46,10.0005 L36,10.0005 L36,30.8265 L46,22.2545 L46,10.0005 Z M34.582,33.9085 C34.228,33.7455 34,33.3915 34,33.0005 L34,9.0005 C34,8.4475 34.447,8.0005 35,8.0005 L47,8.0005 C47.553,8.0005 48,8.4475 48,9.0005 L48,22.7145 C48,23.0065 47.872,23.2835 47.65,23.4735 L35.65,33.7595 C35.466,33.9185 35.234,34.0005 35,34.0005 C34.858,34.0005 34.716,33.9705 34.582,33.9085 Z" id="Fill-48" fill="#FEFEFE" mask="url(#mask-2)"></path>
                <path d="M82.2974,18.0005 L48.0004,18.0005 L48.0004,22.7145 C48.0004,23.0065 47.8724,23.2835 47.6504,23.4735 L35.6504,33.7595 C35.3534,34.0145 34.9374,34.0725 34.5824,33.9085 C34.2274,33.7455 34.0004,33.3915 34.0004,33.0005 L34.0004,18.0005 L29.3704,18.0005 L3.7034,40.0005 L56.6304,40.0005 L82.2974,18.0005 Z M0.0624,41.3475 C-0.0826,40.9545 0.0314,40.5135 0.3494,40.2415 L28.3494,16.2415 C28.5304,16.0855 28.7614,16.0005 29.0004,16.0005 L35.0004,16.0005 C35.5524,16.0005 36.0004,16.4475 36.0004,17.0005 L36.0004,30.8265 L46.0004,22.2545 L46.0004,17.0005 C46.0004,16.4475 46.4474,16.0005 47.0004,16.0005 L84.9994,16.0005 C85.4184,16.0005 85.7924,16.2615 85.9384,16.6535 C86.0824,17.0465 85.9684,17.4875 85.6514,17.7595 L57.6504,41.7595 C57.4694,41.9155 57.2384,42.0005 57.0004,42.0005 L1.0004,42.0005 C0.5814,42.0005 0.2074,41.7395 0.0624,41.3475 Z" id="Fill-49" fill="#FEFEFE" mask="url(#mask-2)"></path>
                <path d="M90,150.001 L104,150.001 L104,116.001 L90,116.001 L90,150.001 Z M88,151.001 L88,115.001 C88,114.448 88.448,114.001 89,114.001 L105,114.001 C105.552,114.001 106,114.448 106,115.001 L106,151.001 C106,151.554 105.552,152.001 105,152.001 L89,152.001 C88.448,152.001 88,151.554 88,151.001 Z" id="Fill-50" fill="#FEFEFE" mask="url(#mask-2)"></path>
                <path d="M98.9995,135.501 C99.5525,135.501 99.9995,135.054 99.9995,134.501 L99.9995,132.501 C99.9995,131.948 99.5525,131.501 98.9995,131.501 C98.4475,131.501 97.9995,131.948 97.9995,132.501 L97.9995,134.501 C97.9995,135.054 98.4475,135.501 98.9995,135.501" id="Fill-51" fill="#FEFEFE" mask="url(#mask-2)"></path>
                <path d="M34,8.001 L48,8.001 L48,2.001 L34,2.001 L34,8.001 Z M49,10.001 L33,10.001 C32.447,10.001 32,9.553 32,9.001 L32,1.001 C32,0.448 32.447,0.001 33,0.001 L49,0.001 C49.553,0.001 50,0.448 50,1.001 L50,9.001 C50,9.553 49.553,10.001 49,10.001 Z" id="Fill-52" fill="#FEFEFE" mask="url(#mask-2)"></path>
                <path d="M85.5874,32.1109 C82.8304,32.1109 80.5874,34.3549 80.5874,37.1109 C80.5874,39.8679 82.8304,42.1109 85.5874,42.1109 C88.3444,42.1109 90.5874,39.8679 90.5874,37.1109 C90.5874,34.3549 88.3444,32.1109 85.5874,32.1109 M85.5874,44.1109 C81.7284,44.1109 78.5874,40.9699 78.5874,37.1109 C78.5874,33.2519 81.7284,30.1109 85.5874,30.1109 C89.4464,30.1109 92.5874,33.2519 92.5874,37.1109 C92.5874,40.9699 89.4464,44.1109 85.5874,44.1109" id="Fill-53" fill="#FEFEFE" mask="url(#mask-2)"></path>
            </g>
        </g>
    </g>
</svg>