<?xml version="1.0" encoding="UTF-8"?>
<svg width="90px" height="92px" viewBox="0 0 90 92" version="1.1" xmlns="http://www.w3.org/2000/svg" xmlns:xlink="http://www.w3.org/1999/xlink">
    <!-- Generator: Sketch 52.5 (67469) - http://www.bohemiancoding.com/sketch -->
    <title>Group 17</title>
    <desc>Created with Sketch.</desc>
    <defs>
        <polygon id="path-1" points="0 0 90 0 90 92 0 92"></polygon>
    </defs>
    <g id="Page-1" stroke="none" stroke-width="1" fill="none" fill-rule="evenodd">
        <g id="07" transform="translate(-67.000000, -449.000000)">
            <g id="Group-17" transform="translate(67.000000, 449.000000)">
                <mask id="mask-2" fill="white">
                    <use xlink:href="#path-1"></use>
                </mask>
                <g id="Clip-2"></g>
                <path d="M2,90 L32,90 L32,36 L2,36 L2,90 Z M33,92 L1,92 C0.448,92 0,91.553 0,91 L0,35 C0,34.447 0.448,34 1,34 L33,34 C33.552,34 34,34.447 34,35 L34,91 C34,91.553 33.552,92 33,92 Z" id="Fill-1" fill="#FEFEFE" mask="url(#mask-2)"></path>
                <path d="M34.0005,90 L88.0005,90 L88.0005,37.437 L60.9735,12.34 L34.0005,35.46 L34.0005,90 Z M89.0005,92 L33.0005,92 C32.4475,92 32.0005,91.553 32.0005,91 L32.0005,35 C32.0005,34.708 32.1275,34.431 32.3495,34.241 L60.3495,10.241 C60.7355,9.91 61.3095,9.923 61.6815,10.268 L89.6815,36.268 C89.8845,36.456 90.0005,36.722 90.0005,37 L90.0005,91 C90.0005,91.553 89.5525,92 89.0005,92 Z" id="Fill-3" fill="#FEFEFE" mask="url(#mask-2)"></path>
                <path d="M10,62 L16,62 L16,52 L10,52 L10,62 Z M17,64 L9,64 C8.448,64 8,63.553 8,63 L8,51 C8,50.447 8.448,50 9,50 L17,50 C17.552,50 18,50.447 18,51 L18,63 C18,63.553 17.552,64 17,64 Z" id="Fill-4" fill="#FEFEFE" mask="url(#mask-2)"></path>
                <path d="M18,62 L24,62 L24,52 L18,52 L18,62 Z M25,64 L17,64 C16.448,64 16,63.553 16,63 L16,51 C16,50.447 16.448,50 17,50 L25,50 C25.552,50 26,50.447 26,51 L26,63 C26,63.553 25.552,64 25,64 Z" id="Fill-5" fill="#FEFEFE" mask="url(#mask-2)"></path>
                <path d="M18,74 L24,74 L24,64 L18,64 L18,74 Z M25,76 L17,76 C16.448,76 16,75.553 16,75 L16,63 C16,62.447 16.448,62 17,62 L25,62 C25.552,62 26,62.447 26,63 L26,75 C26,75.553 25.552,76 25,76 Z" id="Fill-6" fill="#FEFEFE" mask="url(#mask-2)"></path>
                <path d="M10,74 L16,74 L16,64 L10,64 L10,74 Z M17,76 L9,76 C8.448,76 8,75.553 8,75 L8,63 C8,62.447 8.448,62 9,62 L17,62 C17.552,62 18,62.447 18,63 L18,75 C18,75.553 17.552,76 17,76 Z" id="Fill-7" fill="#FEFEFE" mask="url(#mask-2)"></path>
                <path d="M42,62 L48,62 L48,52 L42,52 L42,62 Z M49,64 L41,64 C40.448,64 40,63.553 40,63 L40,51 C40,50.447 40.448,50 41,50 L49,50 C49.552,50 50,50.447 50,51 L50,63 C50,63.553 49.552,64 49,64 Z" id="Fill-8" fill="#FEFEFE" mask="url(#mask-2)"></path>
                <path d="M50,62 L56,62 L56,52 L50,52 L50,62 Z M57,64 L49,64 C48.448,64 48,63.553 48,63 L48,51 C48,50.447 48.448,50 49,50 L57,50 C57.552,50 58,50.447 58,51 L58,63 C58,63.553 57.552,64 57,64 Z" id="Fill-9" fill="#FEFEFE" mask="url(#mask-2)"></path>
                <path d="M50,74 L56,74 L56,64 L50,64 L50,74 Z M57,76 L49,76 C48.448,76 48,75.553 48,75 L48,63 C48,62.447 48.448,62 49,62 L57,62 C57.552,62 58,62.447 58,63 L58,75 C58,75.553 57.552,76 57,76 Z" id="Fill-10" fill="#FEFEFE" mask="url(#mask-2)"></path>
                <path d="M42,74 L48,74 L48,64 L42,64 L42,74 Z M49,76 L41,76 C40.448,76 40,75.553 40,75 L40,63 C40,62.447 40.448,62 41,62 L49,62 C49.552,62 50,62.447 50,63 L50,75 C50,75.553 49.552,76 49,76 Z" id="Fill-11" fill="#FEFEFE" mask="url(#mask-2)"></path>
                <path d="M30.0005,2 L30.0005,20.826 L40.0005,12.254 L40.0005,2 L30.0005,2 Z M29.0005,24 C28.8585,24 28.7155,23.97 28.5815,23.908 C28.2275,23.745 28.0005,23.391 28.0005,23 L28.0005,1 C28.0005,0.447 28.4475,0 29.0005,0 L41.0005,0 C41.5525,0 42.0005,0.447 42.0005,1 L42.0005,12.714 C42.0005,13.006 41.8725,13.283 41.6505,13.473 L29.6505,23.759 C29.4655,23.918 29.2345,24 29.0005,24 Z" id="Fill-12" fill="#FEFEFE" mask="url(#mask-2)"></path>
                <path d="M3.7025,33.9999 L32.6305,33.9999 L58.2975,11.9999 L42.0005,11.9999 L42.0005,12.7139 C42.0005,13.0059 41.8725,13.2829 41.6505,13.4729 L29.6505,23.7589 C29.3545,24.0149 28.9375,24.0709 28.5815,23.9079 C28.2275,23.7449 28.0005,23.3909 28.0005,22.9999 L28.0005,13.1739 L3.7025,33.9999 Z M33.0005,35.9999 L1.0005,35.9999 C0.5815,35.9999 0.2065,35.7389 0.0625,35.3469 C-0.0825,34.9539 0.0315,34.5129 0.3495,34.2409 L28.3495,10.2409 C28.6455,9.9849 29.0625,9.9289 29.4185,10.0919 C29.7725,10.2549 30.0005,10.6099 30.0005,10.9999 L30.0005,20.8259 L40.0005,12.2539 L40.0005,10.9999 C40.0005,10.4469 40.4475,9.9999 41.0005,9.9999 L61.0005,9.9999 C61.4185,9.9999 61.7935,10.2609 61.9375,10.6529 C62.0825,11.0459 61.9695,11.4869 61.6505,11.7589 L33.6505,35.7589 C33.4695,35.9149 33.2385,35.9999 33.0005,35.9999 Z" id="Fill-13" fill="#FEFEFE" mask="url(#mask-2)"></path>
                <path d="M66,90 L80,90 L80,56 L66,56 L66,90 Z M81,92 L65,92 C64.448,92 64,91.553 64,91 L64,55 C64,54.447 64.448,54 65,54 L81,54 C81.552,54 82,54.447 82,55 L82,91 C82,91.553 81.552,92 81,92 Z" id="Fill-14" fill="#FEFEFE" mask="url(#mask-2)"></path>
                <path d="M75.0005,75.5 C74.4475,75.5 74.0005,75.053 74.0005,74.5 L74.0005,72.5 C74.0005,71.947 74.4475,71.5 75.0005,71.5 C75.5525,71.5 76.0005,71.947 76.0005,72.5 L76.0005,74.5 C76.0005,75.053 75.5525,75.5 75.0005,75.5" id="Fill-15" fill="#FEFEFE" mask="url(#mask-2)"></path>
                <path d="M58,38 L64,38 L64,28 L58,28 L58,38 Z M65,40 L57,40 C56.448,40 56,39.553 56,39 L56,27 C56,26.447 56.448,26 57,26 L65,26 C65.552,26 66,26.447 66,27 L66,39 C66,39.553 65.552,40 65,40 Z" id="Fill-16" fill="#FEFEFE" mask="url(#mask-2)"></path>
            </g>
        </g>
    </g>
</svg>