<?xml version="1.0" encoding="UTF-8"?>
<svg width="90px" height="71px" viewBox="0 0 90 71" version="1.1" xmlns="http://www.w3.org/2000/svg" xmlns:xlink="http://www.w3.org/1999/xlink">
    <!-- Generator: Sketch 52.5 (67469) - http://www.bohemiancoding.com/sketch -->
    <title>Group 12</title>
    <desc>Created with Sketch.</desc>
    <defs>
        <polygon id="path-1" points="0 0 89.9999 0 89.9999 71 0 71"></polygon>
    </defs>
    <g id="Page-1" stroke="none" stroke-width="1" fill="none" fill-rule="evenodd">
        <g id="06" transform="translate(-67.000000, -470.000000)">
            <g id="Group-12" transform="translate(67.000000, 470.000000)">
                <mask id="mask-2" fill="white">
                    <use xlink:href="#path-1"></use>
                </mask>
                <g id="Clip-2"></g>
                <path d="M2,69 L32,69 L32,36 L2,36 L2,69 Z M33,71 L1,71 C0.447,71 0,70.553 0,70 L0,35 C0,34.447 0.447,34 1,34 L33,34 C33.553,34 34,34.447 34,35 L34,70 C34,70.553 33.553,71 33,71 Z" id="Fill-1" fill="#FEFEFE" mask="url(#mask-2)"></path>
                <path d="M33.9999,69 L87.9999,69 L87.9999,37.437 L60.9739,12.34 L33.9999,35.46 L33.9999,69 Z M88.9999,71 L32.9999,71 C32.4469,71 31.9999,70.553 31.9999,70 L31.9999,35 C31.9999,34.708 32.1279,34.431 32.3499,34.241 L60.3499,10.241 C60.7359,9.91 61.3089,9.923 61.6809,10.268 L89.6809,36.268 C89.8839,36.456 89.9999,36.722 89.9999,37 L89.9999,70 C89.9999,70.553 89.5529,71 88.9999,71 Z" id="Fill-3" fill="#FEFEFE" mask="url(#mask-2)"></path>
                <path d="M18,56 L24,56 L24,46 L18,46 L18,56 Z M25,58 L17,58 C16.447,58 16,57.553 16,57 L16,45 C16,44.447 16.447,44 17,44 L25,44 C25.553,44 26,44.447 26,45 L26,57 C26,57.553 25.553,58 25,58 Z" id="Fill-4" fill="#FEFEFE" mask="url(#mask-2)"></path>
                <path d="M10,56 L16,56 L16,46 L10,46 L10,56 Z M17,58 L9,58 C8.447,58 8,57.553 8,57 L8,45 C8,44.447 8.447,44 9,44 L17,44 C17.553,44 18,44.447 18,45 L18,57 C18,57.553 17.553,58 17,58 Z" id="Fill-5" fill="#FEFEFE" mask="url(#mask-2)"></path>
                <path d="M50,56 L56,56 L56,46 L50,46 L50,56 Z M57,58 L49,58 C48.447,58 48,57.553 48,57 L48,45 C48,44.447 48.447,44 49,44 L57,44 C57.553,44 58,44.447 58,45 L58,57 C58,57.553 57.553,58 57,58 Z" id="Fill-6" fill="#FEFEFE" mask="url(#mask-2)"></path>
                <path d="M42,56 L48,56 L48,46 L42,46 L42,56 Z M49,58 L41,58 C40.447,58 40,57.553 40,57 L40,45 C40,44.447 40.447,44 41,44 L49,44 C49.553,44 50,44.447 50,45 L50,57 C50,57.553 49.553,58 49,58 Z" id="Fill-7" fill="#FEFEFE" mask="url(#mask-2)"></path>
                <path d="M29.9999,2 L29.9999,20.826 L39.9999,12.254 L39.9999,2 L29.9999,2 Z M28.9999,24 C28.8579,24 28.7159,23.97 28.5819,23.908 C28.2279,23.745 27.9999,23.391 27.9999,23 L27.9999,1 C27.9999,0.447 28.4469,0 28.9999,0 L40.9999,0 C41.5529,0 41.9999,0.447 41.9999,1 L41.9999,12.714 C41.9999,13.006 41.8719,13.283 41.6499,13.473 L29.6499,23.759 C29.4659,23.918 29.2339,24 28.9999,24 Z" id="Fill-8" fill="#FEFEFE" mask="url(#mask-2)"></path>
                <path d="M3.7029,33.9999 L32.6299,33.9999 L58.2969,11.9999 L41.9999,11.9999 L41.9999,12.7139 C41.9999,13.0059 41.8719,13.2829 41.6499,13.4729 L29.6499,23.7589 C29.3539,24.0149 28.9369,24.0709 28.5819,23.9079 C28.2279,23.7449 27.9999,23.3909 27.9999,22.9999 L27.9999,13.1739 L3.7029,33.9999 Z M32.9999,35.9999 L0.9999,35.9999 C0.5809,35.9999 0.2069,35.7389 0.0619,35.3469 C-0.0831,34.9539 0.0309,34.5129 0.3499,34.2409 L28.3499,10.2409 C28.6459,9.9849 29.0619,9.9289 29.4179,10.0919 C29.7719,10.2549 29.9999,10.6099 29.9999,10.9999 L29.9999,20.8259 L39.9999,12.2539 L39.9999,10.9999 C39.9999,10.4469 40.4469,9.9999 40.9999,9.9999 L60.9999,9.9999 C61.4189,9.9999 61.7929,10.2609 61.9369,10.6529 C62.0829,11.0459 61.9689,11.4869 61.6499,11.7589 L33.6499,35.7589 C33.4699,35.9149 33.2379,35.9999 32.9999,35.9999 Z" id="Fill-9" fill="#FEFEFE" mask="url(#mask-2)"></path>
                <path d="M66,69 L80,69 L80,45 L66,45 L66,69 Z M81,71 L65,71 C64.447,71 64,70.553 64,70 L64,44 C64,43.447 64.447,43 65,43 L81,43 C81.553,43 82,43.447 82,44 L82,70 C82,70.553 81.553,71 81,71 Z" id="Fill-10" fill="#FEFEFE" mask="url(#mask-2)"></path>
                <path d="M74.9999,60 C74.4469,60 73.9999,59.553 73.9999,59 L73.9999,57 C73.9999,56.447 74.4469,56 74.9999,56 C75.5529,56 75.9999,56.447 75.9999,57 L75.9999,59 C75.9999,59.553 75.5529,60 74.9999,60" id="Fill-11" fill="#FEFEFE" mask="url(#mask-2)"></path>
            </g>
        </g>
    </g>
</svg>