<?xml version="1.0" encoding="UTF-8"?>
<svg width="67px" height="37px" viewBox="0 0 67 37" version="1.1" xmlns="http://www.w3.org/2000/svg" xmlns:xlink="http://www.w3.org/1999/xlink">
    <!-- Generator: Sketch 52.5 (67469) - http://www.bohemiancoding.com/sketch -->
    <title>Group 7</title>
    <desc>Created with Sketch.</desc>
    <g id="Page-1" stroke="none" stroke-width="1" fill="none" fill-rule="evenodd">
        <g id="08-copy" transform="translate(-236.000000, -503.000000)" fill="#FEFEFE">
            <g id="Group-7" transform="translate(236.000000, 503.000000)">
                <path d="M2,34.9268 L64.69,34.9268 L64.69,1.9998 L2,1.9998 L2,34.9268 Z M65.69,36.9268 L1,36.9268 C0.447,36.9268 0,36.4788 0,35.9268 L0,0.9998 C0,0.4478 0.447,-0.0002 1,-0.0002 L65.69,-0.0002 C66.243,-0.0002 66.69,0.4478 66.69,0.9998 L66.69,35.9268 C66.69,36.4788 66.243,36.9268 65.69,36.9268 Z" id="Fill-1"></path>
                <path d="M13.2354,29.753 L53.4564,29.753 C53.6694,28.181 54.3854,26.73 55.5264,25.588 C56.6664,24.448 58.1174,23.731 59.6884,23.517 L59.6884,13.409 C56.4614,12.964 53.8984,10.401 53.4554,7.173 L13.2354,7.173 C12.7914,10.403 10.2274,12.966 6.9984,13.409 L6.9984,23.517 C10.2274,23.961 12.7914,26.524 13.2354,29.753 M54.3864,31.753 L12.3034,31.753 C11.7514,31.753 11.3034,31.305 11.3034,30.753 C11.3034,27.847 8.9544,25.479 6.0544,25.45 C5.9614,25.456 5.8644,25.447 5.7694,25.424 C5.3184,25.318 4.9984,24.917 4.9984,24.453 L4.9984,12.473 C4.9984,12.009 5.3174,11.607 5.7684,11.5 C5.8724,11.475 5.9794,11.467 6.0804,11.477 C8.9674,11.433 11.3034,9.071 11.3034,6.173 C11.3034,5.621 11.7514,5.173 12.3034,5.173 L54.3884,5.173 C54.6544,5.173 54.9084,5.279 55.0954,5.466 C55.2834,5.654 55.3884,5.909 55.3884,6.174 C55.3874,7.59 55.9394,8.922 56.9404,9.924 C57.9224,10.906 59.2214,11.455 60.6064,11.477 C61.0044,11.436 61.3984,11.656 61.5834,12.026 C61.6584,12.176 61.6934,12.341 61.6884,12.504 L61.6884,24.387 C61.6994,24.56 61.6654,24.736 61.5854,24.897 C61.4034,25.259 61.0374,25.473 60.6324,25.45 C57.7344,25.481 55.3864,27.848 55.3864,30.753 C55.3864,31.305 54.9394,31.753 54.3864,31.753" id="Fill-3"></path>
                <path d="M33.3457,11.1885 C29.3337,11.1885 26.0707,14.4525 26.0707,18.4635 C26.0707,22.4745 29.3337,25.7375 33.3457,25.7375 C37.3567,25.7375 40.6197,22.4745 40.6197,18.4635 C40.6197,14.4525 37.3567,11.1885 33.3457,11.1885 M33.3457,27.7375 C28.2317,27.7375 24.0707,23.5775 24.0707,18.4635 C24.0707,13.3495 28.2317,9.1885 33.3457,9.1885 C38.4597,9.1885 42.6197,13.3495 42.6197,18.4635 C42.6197,23.5775 38.4597,27.7375 33.3457,27.7375" id="Fill-4"></path>
                <path d="M51.2158,19.4634 L47.3608,19.4634 C46.8078,19.4634 46.3608,19.0154 46.3608,18.4634 C46.3608,17.9114 46.8078,17.4634 47.3608,17.4634 L51.2158,17.4634 C51.7688,17.4634 52.2158,17.9114 52.2158,18.4634 C52.2158,19.0154 51.7688,19.4634 51.2158,19.4634" id="Fill-5"></path>
                <path d="M19.3301,19.4634 L15.4761,19.4634 C14.9231,19.4634 14.4761,19.0154 14.4761,18.4634 C14.4761,17.9114 14.9231,17.4634 15.4761,17.4634 L19.3301,17.4634 C19.8831,17.4634 20.3301,17.9114 20.3301,18.4634 C20.3301,19.0154 19.8831,19.4634 19.3301,19.4634" id="Fill-6"></path>
            </g>
        </g>
    </g>
</svg>