<?xml version="1.0" encoding="UTF-8"?>
<svg width="67px" height="151px" viewBox="0 0 67 151" version="1.1" xmlns="http://www.w3.org/2000/svg" xmlns:xlink="http://www.w3.org/1999/xlink">
    <!-- Generator: Sketch 52.5 (67469) - http://www.bohemiancoding.com/sketch -->
    <title>Group 49</title>
    <desc>Created with Sketch.</desc>
    <defs>
        <polygon id="path-1" points="0.0004 0.0245 66.69 0.0245 66.69 2.0245 0.0004 2.0245"></polygon>
        <polygon id="path-3" points="0.0004 0.4175 66.69 0.4175 66.69 2.4175 0.0004 2.4175"></polygon>
        <polygon id="path-5" points="0.0004 0.8111 66.69 0.8111 66.69 2.8111 0.0004 2.8111"></polygon>
        <polygon id="path-7" points="0.0004 0.2041 66.69 0.2041 66.69 2.2041 0.0004 2.2041"></polygon>
        <polygon id="path-9" points="0.0004 0.919 66.69 0.919 66.69 2.919 0.0004 2.919"></polygon>
        <polygon id="path-11" points="0.0004 0.312 66.69 0.312 66.69 2.312 0.0004 2.312"></polygon>
        <polygon id="path-13" points="0.0004 0.7056 66.69 0.7056 66.69 2.7056 0.0004 2.7056"></polygon>
        <polygon id="path-15" points="0.0004 0.0987 66.69 0.0987 66.69 2.0987 0.0004 2.0987"></polygon>
        <polygon id="path-17" points="0 150.934 66.69 150.934 66.69 0 0 0"></polygon>
    </defs>
    <g id="Page-1" stroke="none" stroke-width="1" fill="none" fill-rule="evenodd">
        <g id="08-copy-2" transform="translate(-111.000000, -390.000000)">
            <g id="Group-49" transform="translate(111.000000, 390.000000)">
                <g id="Group-3" transform="translate(0.000000, 91.934000)">
                    <mask id="mask-2" fill="white">
                        <use xlink:href="#path-1"></use>
                    </mask>
                    <g id="Clip-2"></g>
                    <path d="M65.6904,2.0245 L1.0004,2.0245 C0.4474,2.0245 0.0004,1.5765 0.0004,1.0245 C0.0004,0.4725 0.4474,0.0245 1.0004,0.0245 L65.6904,0.0245 C66.2434,0.0245 66.6904,0.4725 66.6904,1.0245 C66.6904,1.5765 66.2434,2.0245 65.6904,2.0245" id="Fill-1" fill="#FEFEFE" mask="url(#mask-2)"></path>
                </g>
                <g id="Group-6" transform="translate(0.000000, 95.934000)">
                    <mask id="mask-4" fill="white">
                        <use xlink:href="#path-3"></use>
                    </mask>
                    <g id="Clip-5"></g>
                    <path d="M65.6904,2.4175 L1.0004,2.4175 C0.4474,2.4175 0.0004,1.9695 0.0004,1.4175 C0.0004,0.8655 0.4474,0.4175 1.0004,0.4175 L65.6904,0.4175 C66.2434,0.4175 66.6904,0.8655 66.6904,1.4175 C66.6904,1.9695 66.2434,2.4175 65.6904,2.4175" id="Fill-4" fill="#FEFEFE" mask="url(#mask-4)"></path>
                </g>
                <g id="Group-9" transform="translate(0.000000, 99.934000)">
                    <mask id="mask-6" fill="white">
                        <use xlink:href="#path-5"></use>
                    </mask>
                    <g id="Clip-8"></g>
                    <path d="M65.6904,2.8111 L1.0004,2.8111 C0.4474,2.8111 0.0004,2.3631 0.0004,1.8111 C0.0004,1.2591 0.4474,0.8111 1.0004,0.8111 L65.6904,0.8111 C66.2434,0.8111 66.6904,1.2591 66.6904,1.8111 C66.6904,2.3631 66.2434,2.8111 65.6904,2.8111" id="Fill-7" fill="#FEFEFE" mask="url(#mask-6)"></path>
                </g>
                <g id="Group-12" transform="translate(0.000000, 104.934000)">
                    <mask id="mask-8" fill="white">
                        <use xlink:href="#path-7"></use>
                    </mask>
                    <g id="Clip-11"></g>
                    <path d="M65.6904,2.2041 L1.0004,2.2041 C0.4474,2.2041 0.0004,1.7561 0.0004,1.2041 C0.0004,0.6521 0.4474,0.2041 1.0004,0.2041 L65.6904,0.2041 C66.2434,0.2041 66.6904,0.6521 66.6904,1.2041 C66.6904,1.7561 66.2434,2.2041 65.6904,2.2041" id="Fill-10" fill="#FEFEFE" mask="url(#mask-8)"></path>
                </g>
                <g id="Group-15" transform="translate(0.000000, 55.934000)">
                    <mask id="mask-10" fill="white">
                        <use xlink:href="#path-9"></use>
                    </mask>
                    <g id="Clip-14"></g>
                    <path d="M65.6904,2.919 L1.0004,2.919 C0.4474,2.919 0.0004,2.471 0.0004,1.919 C0.0004,1.367 0.4474,0.919 1.0004,0.919 L65.6904,0.919 C66.2434,0.919 66.6904,1.367 66.6904,1.919 C66.6904,2.471 66.2434,2.919 65.6904,2.919" id="Fill-13" fill="#FEFEFE" mask="url(#mask-10)"></path>
                </g>
                <g id="Group-18" transform="translate(0.000000, 60.934000)">
                    <mask id="mask-12" fill="white">
                        <use xlink:href="#path-11"></use>
                    </mask>
                    <g id="Clip-17"></g>
                    <path d="M65.6904,2.312 L1.0004,2.312 C0.4474,2.312 0.0004,1.864 0.0004,1.312 C0.0004,0.76 0.4474,0.312 1.0004,0.312 L65.6904,0.312 C66.2434,0.312 66.6904,0.76 66.6904,1.312 C66.6904,1.864 66.2434,2.312 65.6904,2.312" id="Fill-16" fill="#FEFEFE" mask="url(#mask-12)"></path>
                </g>
                <g id="Group-21" transform="translate(0.000000, 64.934000)">
                    <mask id="mask-14" fill="white">
                        <use xlink:href="#path-13"></use>
                    </mask>
                    <g id="Clip-20"></g>
                    <path d="M65.6904,2.7056 L1.0004,2.7056 C0.4474,2.7056 0.0004,2.2576 0.0004,1.7056 C0.0004,1.1536 0.4474,0.7056 1.0004,0.7056 L65.6904,0.7056 C66.2434,0.7056 66.6904,1.1536 66.6904,1.7056 C66.6904,2.2576 66.2434,2.7056 65.6904,2.7056" id="Fill-19" fill="#FEFEFE" mask="url(#mask-14)"></path>
                </g>
                <g id="Group-24" transform="translate(0.000000, 69.934000)">
                    <mask id="mask-16" fill="white">
                        <use xlink:href="#path-15"></use>
                    </mask>
                    <g id="Clip-23"></g>
                    <path d="M65.6904,2.0987 L1.0004,2.0987 C0.4474,2.0987 0.0004,1.6507 0.0004,1.0987 C0.0004,0.5467 0.4474,0.0987 1.0004,0.0987 L65.6904,0.0987 C66.2434,0.0987 66.6904,0.5467 66.6904,1.0987 C66.6904,1.6507 66.2434,2.0987 65.6904,2.0987" id="Fill-22" fill="#FEFEFE" mask="url(#mask-16)"></path>
                </g>
                <mask id="mask-18" fill="white">
                    <use xlink:href="#path-17"></use>
                </mask>
                <g id="Clip-26"></g>
                <path d="M2,34.927 L64.69,34.927 L64.69,2 L2,2 L2,34.927 Z M65.69,36.927 L1,36.927 C0.447,36.927 0,36.479 0,35.927 L0,1 C0,0.448 0.447,0 1,0 L65.69,0 C66.243,0 66.69,0.448 66.69,1 L66.69,35.927 C66.69,36.479 66.243,36.927 65.69,36.927 Z" id="Fill-25" fill="#FEFEFE" mask="url(#mask-18)"></path>
                <path d="M13.2354,29.7534 L53.4554,29.7534 C53.8984,26.5244 56.4614,23.9624 59.6884,23.5174 L59.6884,13.4084 C56.4614,12.9634 53.8984,10.4014 53.4554,7.1734 L13.2354,7.1734 C12.7914,10.4024 10.2274,12.9654 6.9984,13.4094 L6.9984,23.5174 C10.2284,23.9604 12.7924,26.5234 13.2354,29.7534 M54.3884,31.7534 L12.3084,31.7534 C12.2754,31.7534 12.2424,31.7524 12.2094,31.7484 L12.2044,31.7484 C11.6934,31.6964 11.3034,31.2664 11.3034,30.7534 C11.3034,27.8464 8.9544,25.4794 6.0544,25.4494 C5.9654,25.4554 5.8654,25.4474 5.7694,25.4244 C5.3184,25.3174 4.9984,24.9174 4.9984,24.4534 L4.9984,12.4734 C4.9984,12.0094 5.3174,11.6064 5.7684,11.5004 C5.8724,11.4754 5.9794,11.4664 6.0804,11.4764 C8.9674,11.4334 11.3034,9.0704 11.3034,6.1734 C11.3034,5.6214 11.7514,5.1734 12.3034,5.1734 L54.3884,5.1734 C54.6544,5.1734 54.9084,5.2784 55.0954,5.4664 C55.2834,5.6544 55.3884,5.9084 55.3884,6.1734 C55.3874,7.5904 55.9394,8.9214 56.9404,9.9234 C57.9224,10.9054 59.2214,11.4554 60.6074,11.4764 C61.0014,11.4374 61.3984,11.6554 61.5834,12.0254 C61.6584,12.1764 61.6934,12.3414 61.6884,12.5044 L61.6884,24.3864 C61.6994,24.5604 61.6654,24.7354 61.5854,24.8964 C61.4034,25.2584 61.0304,25.4804 60.6324,25.4494 C57.7484,25.4804 55.4094,27.8244 55.3864,30.7114 C55.3884,30.7654 55.3864,30.8194 55.3804,30.8754 C55.3184,31.3764 54.8934,31.7534 54.3884,31.7534" id="Fill-27" fill="#FEFEFE" mask="url(#mask-18)"></path>
                <path d="M33.3457,11.1884 C29.3337,11.1884 26.0707,14.4524 26.0707,18.4634 C26.0707,22.4744 29.3337,25.7384 33.3457,25.7384 C37.3567,25.7384 40.6197,22.4744 40.6197,18.4634 C40.6197,14.4524 37.3567,11.1884 33.3457,11.1884 M33.3457,27.7384 C28.2317,27.7384 24.0707,23.5774 24.0707,18.4634 C24.0707,13.3494 28.2317,9.1884 33.3457,9.1884 C38.4597,9.1884 42.6197,13.3494 42.6197,18.4634 C42.6197,23.5774 38.4597,27.7384 33.3457,27.7384" id="Fill-28" fill="#FEFEFE" mask="url(#mask-18)"></path>
                <path d="M51.2158,19.4633 L47.3608,19.4633 C46.8078,19.4633 46.3608,19.0153 46.3608,18.4633 C46.3608,17.9113 46.8078,17.4633 47.3608,17.4633 L51.2158,17.4633 C51.7688,17.4633 52.2158,17.9113 52.2158,18.4633 C52.2158,19.0153 51.7688,19.4633 51.2158,19.4633" id="Fill-29" fill="#FEFEFE" mask="url(#mask-18)"></path>
                <path d="M19.3301,19.4633 L15.4761,19.4633 C14.9231,19.4633 14.4761,19.0153 14.4761,18.4633 C14.4761,17.9113 14.9231,17.4633 15.4761,17.4633 L19.3301,17.4633 C19.8831,17.4633 20.3301,17.9113 20.3301,18.4633 C20.3301,19.0153 19.8831,19.4633 19.3301,19.4633" id="Fill-30" fill="#FEFEFE" mask="url(#mask-18)"></path>
                <path d="M65.6904,41.2797 L1.0004,41.2797 C0.4474,41.2797 0.0004,40.8317 0.0004,40.2797 C0.0004,39.7277 0.4474,39.2797 1.0004,39.2797 L65.6904,39.2797 C66.2434,39.2797 66.6904,39.7277 66.6904,40.2797 C66.6904,40.8317 66.2434,41.2797 65.6904,41.2797" id="Fill-31" fill="#FEFEFE" mask="url(#mask-18)"></path>
                <path d="M65.6904,45.6728 L1.0004,45.6728 C0.4474,45.6728 0.0004,45.2248 0.0004,44.6728 C0.0004,44.1208 0.4474,43.6728 1.0004,43.6728 L65.6904,43.6728 C66.2434,43.6728 66.6904,44.1208 66.6904,44.6728 C66.6904,45.2248 66.2434,45.6728 65.6904,45.6728" id="Fill-32" fill="#FEFEFE" mask="url(#mask-18)"></path>
                <path d="M65.6904,50.0664 L1.0004,50.0664 C0.4474,50.0664 0.0004,49.6184 0.0004,49.0664 C0.0004,48.5144 0.4474,48.0664 1.0004,48.0664 L65.6904,48.0664 C66.2434,48.0664 66.6904,48.5144 66.6904,49.0664 C66.6904,49.6184 66.2434,50.0664 65.6904,50.0664" id="Fill-33" fill="#FEFEFE" mask="url(#mask-18)"></path>
                <path d="M65.6904,54.4594 L1.0004,54.4594 C0.4474,54.4594 0.0004,54.0114 0.0004,53.4594 C0.0004,52.9074 0.4474,52.4594 1.0004,52.4594 L65.6904,52.4594 C66.2434,52.4594 66.6904,52.9074 66.6904,53.4594 C66.6904,54.0114 66.2434,54.4594 65.6904,54.4594" id="Fill-34" fill="#FEFEFE" mask="url(#mask-18)"></path>
                <path d="M65.6904,76.4257 L1.0004,76.4257 C0.4474,76.4257 0.0004,75.9777 0.0004,75.4257 C0.0004,74.8737 0.4474,74.4257 1.0004,74.4257 L65.6904,74.4257 C66.2434,74.4257 66.6904,74.8737 66.6904,75.4257 C66.6904,75.9777 66.2434,76.4257 65.6904,76.4257" id="Fill-35" fill="#FEFEFE" mask="url(#mask-18)"></path>
                <path d="M65.6904,80.8188 L1.0004,80.8188 C0.4474,80.8188 0.0004,80.3708 0.0004,79.8188 C0.0004,79.2668 0.4474,78.8188 1.0004,78.8188 L65.6904,78.8188 C66.2434,78.8188 66.6904,79.2668 66.6904,79.8188 C66.6904,80.3708 66.2434,80.8188 65.6904,80.8188" id="Fill-36" fill="#FEFEFE" mask="url(#mask-18)"></path>
                <path d="M65.6904,85.2124 L1.0004,85.2124 C0.4474,85.2124 0.0004,84.7644 0.0004,84.2124 C0.0004,83.6604 0.4474,83.2124 1.0004,83.2124 L65.6904,83.2124 C66.2434,83.2124 66.6904,83.6604 66.6904,84.2124 C66.6904,84.7644 66.2434,85.2124 65.6904,85.2124" id="Fill-37" fill="#FEFEFE" mask="url(#mask-18)"></path>
                <path d="M65.6904,89.6054 L1.0004,89.6054 C0.4474,89.6054 0.0004,89.1574 0.0004,88.6054 C0.0004,88.0534 0.4474,87.6054 1.0004,87.6054 L65.6904,87.6054 C66.2434,87.6054 66.6904,88.0534 66.6904,88.6054 C66.6904,89.1574 66.2434,89.6054 65.6904,89.6054" id="Fill-38" fill="#FEFEFE" mask="url(#mask-18)"></path>
                <path d="M65.6904,124.6303 L1.0004,124.6303 C0.4474,124.6303 0.0004,124.1833 0.0004,123.6303 C0.0004,123.0783 0.4474,122.6303 1.0004,122.6303 L65.6904,122.6303 C66.2434,122.6303 66.6904,123.0783 66.6904,123.6303 C66.6904,124.1833 66.2434,124.6303 65.6904,124.6303" id="Fill-39" fill="#FEFEFE" mask="url(#mask-18)"></path>
                <path d="M65.6904,129.0239 L1.0004,129.0239 C0.4474,129.0239 0.0004,128.5759 0.0004,128.0239 C0.0004,127.4709 0.4474,127.0239 1.0004,127.0239 L65.6904,127.0239 C66.2434,127.0239 66.6904,127.4709 66.6904,128.0239 C66.6904,128.5759 66.2434,129.0239 65.6904,129.0239" id="Fill-40" fill="#FEFEFE" mask="url(#mask-18)"></path>
                <path d="M65.6904,133.4174 L1.0004,133.4174 C0.4474,133.4174 0.0004,132.9694 0.0004,132.4174 C0.0004,131.8644 0.4474,131.4174 1.0004,131.4174 L65.6904,131.4174 C66.2434,131.4174 66.6904,131.8644 66.6904,132.4174 C66.6904,132.9694 66.2434,133.4174 65.6904,133.4174" id="Fill-41" fill="#FEFEFE" mask="url(#mask-18)"></path>
                <path d="M65.6904,137.81 L1.0004,137.81 C0.4474,137.81 0.0004,137.363 0.0004,136.81 C0.0004,136.258 0.4474,135.81 1.0004,135.81 L65.6904,135.81 C66.2434,135.81 66.6904,136.258 66.6904,136.81 C66.6904,137.363 66.2434,137.81 65.6904,137.81" id="Fill-42" fill="#FEFEFE" mask="url(#mask-18)"></path>
                <path d="M65.6904,142.1469 L1.0004,142.1469 C0.4474,142.1469 0.0004,141.6999 0.0004,141.1469 C0.0004,140.5949 0.4474,140.1469 1.0004,140.1469 L65.6904,140.1469 C66.2434,140.1469 66.6904,140.5949 66.6904,141.1469 C66.6904,141.6999 66.2434,142.1469 65.6904,142.1469" id="Fill-43" fill="#FEFEFE" mask="url(#mask-18)"></path>
                <path d="M65.6904,146.5405 L1.0004,146.5405 C0.4474,146.5405 0.0004,146.0925 0.0004,145.5405 C0.0004,144.9875 0.4474,144.5405 1.0004,144.5405 L65.6904,144.5405 C66.2434,144.5405 66.6904,144.9875 66.6904,145.5405 C66.6904,146.0925 66.2434,146.5405 65.6904,146.5405" id="Fill-44" fill="#FEFEFE" mask="url(#mask-18)"></path>
                <path d="M65.6904,150.934 L1.0004,150.934 C0.4474,150.934 0.0004,150.486 0.0004,149.934 C0.0004,149.381 0.4474,148.934 1.0004,148.934 L65.6904,148.934 C66.2434,148.934 66.6904,149.381 66.6904,149.934 C66.6904,150.486 66.2434,150.934 65.6904,150.934" id="Fill-45" fill="#FEFEFE" mask="url(#mask-18)"></path>
                <path d="M65.6904,111.4907 L1.0004,111.4907 C0.4474,111.4907 0.0004,111.0437 0.0004,110.4907 C0.0004,109.9387 0.4474,109.4907 1.0004,109.4907 L65.6904,109.4907 C66.2434,109.4907 66.6904,109.9387 66.6904,110.4907 C66.6904,111.0437 66.2434,111.4907 65.6904,111.4907" id="Fill-46" fill="#FEFEFE" mask="url(#mask-18)"></path>
                <path d="M65.6904,115.8842 L1.0004,115.8842 C0.4474,115.8842 0.0004,115.4372 0.0004,114.8842 C0.0004,114.3322 0.4474,113.8842 1.0004,113.8842 L65.6904,113.8842 C66.2434,113.8842 66.6904,114.3322 66.6904,114.8842 C66.6904,115.4372 66.2434,115.8842 65.6904,115.8842" id="Fill-47" fill="#FEFEFE" mask="url(#mask-18)"></path>
                <path d="M65.6904,120.2778 L1.0004,120.2778 C0.4474,120.2778 0.0004,119.8298 0.0004,119.2778 C0.0004,118.7248 0.4474,118.2778 1.0004,118.2778 L65.6904,118.2778 C66.2434,118.2778 66.6904,118.7248 66.6904,119.2778 C66.6904,119.8298 66.2434,120.2778 65.6904,120.2778" id="Fill-48" fill="#FEFEFE" mask="url(#mask-18)"></path>
            </g>
        </g>
    </g>
</svg>