<?xml version="1.0" encoding="UTF-8"?>
<svg width="67px" height="108px" viewBox="0 0 67 108" version="1.1" xmlns="http://www.w3.org/2000/svg" xmlns:xlink="http://www.w3.org/1999/xlink">
    <!-- Generator: Sketch 52.5 (67469) - http://www.bohemiancoding.com/sketch -->
    <title>Group 39</title>
    <desc>Created with Sketch.</desc>
    <defs>
        <polygon id="path-1" points="0.0008 0.8203 66.69 0.8203 66.69 2.8203 0.0008 2.8203"></polygon>
        <polygon id="path-3" points="0.0008 0.2134 66.69 0.2134 66.69 2.2134 0.0008 2.2134"></polygon>
        <polygon id="path-5" points="0.0008 0.6069 66.69 0.6069 66.69 2.6069 0.0008 2.6069"></polygon>
        <polygon id="path-7" points="0.0008 0 66.69 0 66.69 2 0.0008 2"></polygon>
        <polygon id="path-9" points="0.0008 0.7148 66.69 0.7148 66.69 2.7148 0.0008 2.7148"></polygon>
        <polygon id="path-11" points="0.0008 0.1079 66.69 0.1079 66.69 2.1079 0.0008 2.1079"></polygon>
        <polygon id="path-13" points="0.0008 0.5015 66.69 0.5015 66.69 2.5015 0.0008 2.5015"></polygon>
        <polygon id="path-15" points="0.0008 0.8945 66.69 0.8945 66.69 2.8945 0.0008 2.8945"></polygon>
        <polygon id="path-17" points="0 107.138 66.69 107.138 66.69 0 0 0"></polygon>
    </defs>
    <g id="Page-1" stroke="none" stroke-width="1" fill="none" fill-rule="evenodd">
        <g id="06-copy" transform="translate(-236.000000, -433.000000)">
            <g id="Group-39" transform="translate(236.000000, 433.000000)">
                <g id="Group-3" transform="translate(0.000000, 91.138000)">
                    <mask id="mask-2" fill="white">
                        <use xlink:href="#path-1"></use>
                    </mask>
                    <g id="Clip-2"></g>
                    <path d="M65.6908,2.8203 L1.0008,2.8203 C0.4478,2.8203 0.0008,2.3723 0.0008,1.8203 C0.0008,1.2683 0.4478,0.8203 1.0008,0.8203 L65.6908,0.8203 C66.2438,0.8203 66.6908,1.2683 66.6908,1.8203 C66.6908,2.3723 66.2438,2.8203 65.6908,2.8203" id="Fill-1" fill="#FEFEFE" mask="url(#mask-2)"></path>
                </g>
                <g id="Group-6" transform="translate(0.000000, 96.138000)">
                    <mask id="mask-4" fill="white">
                        <use xlink:href="#path-3"></use>
                    </mask>
                    <g id="Clip-5"></g>
                    <path d="M65.6908,2.2134 L1.0008,2.2134 C0.4478,2.2134 0.0008,1.7654 0.0008,1.2134 C0.0008,0.6614 0.4478,0.2134 1.0008,0.2134 L65.6908,0.2134 C66.2438,0.2134 66.6908,0.6614 66.6908,1.2134 C66.6908,1.7654 66.2438,2.2134 65.6908,2.2134" id="Fill-4" fill="#FEFEFE" mask="url(#mask-4)"></path>
                </g>
                <g id="Group-9" transform="translate(0.000000, 100.138000)">
                    <mask id="mask-6" fill="white">
                        <use xlink:href="#path-5"></use>
                    </mask>
                    <g id="Clip-8"></g>
                    <path d="M65.6908,2.6069 L1.0008,2.6069 C0.4478,2.6069 0.0008,2.1589 0.0008,1.6069 C0.0008,1.0549 0.4478,0.6069 1.0008,0.6069 L65.6908,0.6069 C66.2438,0.6069 66.6908,1.0549 66.6908,1.6069 C66.6908,2.1589 66.2438,2.6069 65.6908,2.6069" id="Fill-7" fill="#FEFEFE" mask="url(#mask-6)"></path>
                </g>
                <g id="Group-12" transform="translate(0.000000, 105.138000)">
                    <mask id="mask-8" fill="white">
                        <use xlink:href="#path-7"></use>
                    </mask>
                    <g id="Clip-11"></g>
                    <path d="M65.6908,2 L1.0008,2 C0.4478,2 0.0008,1.552 0.0008,1 C0.0008,0.448 0.4478,0 1.0008,0 L65.6908,0 C66.2438,0 66.6908,0.448 66.6908,1 C66.6908,1.552 66.2438,2 65.6908,2" id="Fill-10" fill="#FEFEFE" mask="url(#mask-8)"></path>
                </g>
                <g id="Group-15" transform="translate(0.000000, 56.138000)">
                    <mask id="mask-10" fill="white">
                        <use xlink:href="#path-9"></use>
                    </mask>
                    <g id="Clip-14"></g>
                    <path d="M65.6908,2.7148 L1.0008,2.7148 C0.4478,2.7148 0.0008,2.2668 0.0008,1.7148 C0.0008,1.1628 0.4478,0.7148 1.0008,0.7148 L65.6908,0.7148 C66.2438,0.7148 66.6908,1.1628 66.6908,1.7148 C66.6908,2.2668 66.2438,2.7148 65.6908,2.7148" id="Fill-13" fill="#FEFEFE" mask="url(#mask-10)"></path>
                </g>
                <g id="Group-18" transform="translate(0.000000, 61.138000)">
                    <mask id="mask-12" fill="white">
                        <use xlink:href="#path-11"></use>
                    </mask>
                    <g id="Clip-17"></g>
                    <path d="M65.6908,2.1079 L1.0008,2.1079 C0.4478,2.1079 0.0008,1.6599 0.0008,1.1079 C0.0008,0.5559 0.4478,0.1079 1.0008,0.1079 L65.6908,0.1079 C66.2438,0.1079 66.6908,0.5559 66.6908,1.1079 C66.6908,1.6599 66.2438,2.1079 65.6908,2.1079" id="Fill-16" fill="#FEFEFE" mask="url(#mask-12)"></path>
                </g>
                <g id="Group-21" transform="translate(0.000000, 65.138000)">
                    <mask id="mask-14" fill="white">
                        <use xlink:href="#path-13"></use>
                    </mask>
                    <g id="Clip-20"></g>
                    <path d="M65.6908,2.5015 L1.0008,2.5015 C0.4478,2.5015 0.0008,2.0535 0.0008,1.5015 C0.0008,0.9495 0.4478,0.5015 1.0008,0.5015 L65.6908,0.5015 C66.2438,0.5015 66.6908,0.9495 66.6908,1.5015 C66.6908,2.0535 66.2438,2.5015 65.6908,2.5015" id="Fill-19" fill="#FEFEFE" mask="url(#mask-14)"></path>
                </g>
                <g id="Group-24" transform="translate(0.000000, 69.138000)">
                    <mask id="mask-16" fill="white">
                        <use xlink:href="#path-15"></use>
                    </mask>
                    <g id="Clip-23"></g>
                    <path d="M65.6908,2.8945 L1.0008,2.8945 C0.4478,2.8945 0.0008,2.4465 0.0008,1.8945 C0.0008,1.3425 0.4478,0.8945 1.0008,0.8945 L65.6908,0.8945 C66.2438,0.8945 66.6908,1.3425 66.6908,1.8945 C66.6908,2.4465 66.2438,2.8945 65.6908,2.8945" id="Fill-22" fill="#FEFEFE" mask="url(#mask-16)"></path>
                </g>
                <mask id="mask-18" fill="white">
                    <use xlink:href="#path-17"></use>
                </mask>
                <g id="Clip-26"></g>
                <path d="M2,34.927 L64.69,34.927 L64.69,2 L2,2 L2,34.927 Z M65.691,36.927 L1,36.927 C0.448,36.927 0,36.479 0,35.927 L0,1 C0,0.448 0.448,0 1,0 L65.691,0 C66.243,0 66.691,0.448 66.691,1 L66.691,35.927 C66.691,36.479 66.243,36.927 65.691,36.927 Z" id="Fill-25" fill="#FEFEFE" mask="url(#mask-18)"></path>
                <path d="M13.2357,29.7532 L53.4557,29.7532 C53.8987,26.5242 56.4617,23.9622 59.6887,23.5172 L59.6887,13.4082 C56.4617,12.9632 53.8987,10.4012 53.4557,7.1732 L13.2357,7.1732 C12.7917,10.4022 10.2277,12.9652 6.9987,13.4092 L6.9987,23.5172 C10.2287,23.9602 12.7927,26.5232 13.2357,29.7532 M54.3887,31.7532 L12.3087,31.7532 C12.2757,31.7532 12.2427,31.7522 12.2097,31.7482 L12.2047,31.7482 C11.6937,31.6962 11.3037,31.2662 11.3037,30.7532 C11.3037,27.8462 8.9547,25.4792 6.0547,25.4492 C5.9657,25.4552 5.8657,25.4472 5.7697,25.4242 C5.3187,25.3172 4.9987,24.9172 4.9987,24.4532 L4.9987,12.4732 C4.9987,12.0092 5.3177,11.6062 5.7687,11.5002 C5.8727,11.4752 5.9797,11.4662 6.0807,11.4762 C8.9677,11.4332 11.3037,9.0702 11.3037,6.1732 C11.3037,5.6212 11.7517,5.1732 12.3037,5.1732 L54.3887,5.1732 C54.6547,5.1732 54.9087,5.2782 55.0957,5.4662 C55.2837,5.6542 55.3887,5.9082 55.3887,6.1732 C55.3877,7.5902 55.9397,8.9212 56.9407,9.9232 C57.9227,10.9052 59.2217,11.4552 60.6077,11.4762 C61.0017,11.4372 61.3987,11.6552 61.5837,12.0252 C61.6587,12.1762 61.6937,12.3412 61.6887,12.5042 L61.6887,24.3862 C61.6997,24.5602 61.6657,24.7352 61.5857,24.8962 C61.4037,25.2582 61.0307,25.4802 60.6327,25.4492 C57.7487,25.4802 55.4097,27.8242 55.3867,30.7112 C55.3887,30.7652 55.3867,30.8192 55.3807,30.8752 C55.3187,31.3762 54.8937,31.7532 54.3887,31.7532" id="Fill-27" fill="#FEFEFE" mask="url(#mask-18)"></path>
                <path d="M33.346,11.1883 C29.334,11.1883 26.071,14.4523 26.071,18.4633 C26.071,22.4743 29.334,25.7383 33.346,25.7383 C37.357,25.7383 40.62,22.4743 40.62,18.4633 C40.62,14.4523 37.357,11.1883 33.346,11.1883 M33.346,27.7383 C28.232,27.7383 24.071,23.5773 24.071,18.4633 C24.071,13.3493 28.232,9.1883 33.346,9.1883 C38.46,9.1883 42.62,13.3493 42.62,18.4633 C42.62,23.5773 38.46,27.7383 33.346,27.7383" id="Fill-28" fill="#FEFEFE" mask="url(#mask-18)"></path>
                <path d="M51.2161,19.4632 L47.3611,19.4632 C46.8081,19.4632 46.3611,19.0152 46.3611,18.4632 C46.3611,17.9112 46.8081,17.4632 47.3611,17.4632 L51.2161,17.4632 C51.7691,17.4632 52.2161,17.9112 52.2161,18.4632 C52.2161,19.0152 51.7691,19.4632 51.2161,19.4632" id="Fill-29" fill="#FEFEFE" mask="url(#mask-18)"></path>
                <path d="M19.3304,19.4632 L15.4764,19.4632 C14.9234,19.4632 14.4764,19.0152 14.4764,18.4632 C14.4764,17.9112 14.9234,17.4632 15.4764,17.4632 L19.3304,17.4632 C19.8834,17.4632 20.3304,17.9112 20.3304,18.4632 C20.3304,19.0152 19.8834,19.4632 19.3304,19.4632" id="Fill-30" fill="#FEFEFE" mask="url(#mask-18)"></path>
                <path d="M65.6908,41.2796 L1.0008,41.2796 C0.4478,41.2796 0.0008,40.8316 0.0008,40.2796 C0.0008,39.7276 0.4478,39.2796 1.0008,39.2796 L65.6908,39.2796 C66.2438,39.2796 66.6908,39.7276 66.6908,40.2796 C66.6908,40.8316 66.2438,41.2796 65.6908,41.2796" id="Fill-31" fill="#FEFEFE" mask="url(#mask-18)"></path>
                <path d="M65.6908,45.6727 L1.0008,45.6727 C0.4478,45.6727 0.0008,45.2247 0.0008,44.6727 C0.0008,44.1207 0.4478,43.6727 1.0008,43.6727 L65.6908,43.6727 C66.2438,43.6727 66.6908,44.1207 66.6908,44.6727 C66.6908,45.2247 66.2438,45.6727 65.6908,45.6727" id="Fill-32" fill="#FEFEFE" mask="url(#mask-18)"></path>
                <path d="M65.6908,50.0662 L1.0008,50.0662 C0.4478,50.0662 0.0008,49.6182 0.0008,49.0662 C0.0008,48.5142 0.4478,48.0662 1.0008,48.0662 L65.6908,48.0662 C66.2438,48.0662 66.6908,48.5142 66.6908,49.0662 C66.6908,49.6182 66.2438,50.0662 65.6908,50.0662" id="Fill-33" fill="#FEFEFE" mask="url(#mask-18)"></path>
                <path d="M65.6908,54.4593 L1.0008,54.4593 C0.4478,54.4593 0.0008,54.0113 0.0008,53.4593 C0.0008,52.9073 0.4478,52.4593 1.0008,52.4593 L65.6908,52.4593 C66.2438,52.4593 66.6908,52.9073 66.6908,53.4593 C66.6908,54.0113 66.2438,54.4593 65.6908,54.4593" id="Fill-34" fill="#FEFEFE" mask="url(#mask-18)"></path>
                <path d="M65.6908,76.4256 L1.0008,76.4256 C0.4478,76.4256 0.0008,75.9776 0.0008,75.4256 C0.0008,74.8736 0.4478,74.4256 1.0008,74.4256 L65.6908,74.4256 C66.2438,74.4256 66.6908,74.8736 66.6908,75.4256 C66.6908,75.9776 66.2438,76.4256 65.6908,76.4256" id="Fill-35" fill="#FEFEFE" mask="url(#mask-18)"></path>
                <path d="M65.6908,80.8187 L1.0008,80.8187 C0.4478,80.8187 0.0008,80.3707 0.0008,79.8187 C0.0008,79.2667 0.4478,78.8187 1.0008,78.8187 L65.6908,78.8187 C66.2438,78.8187 66.6908,79.2667 66.6908,79.8187 C66.6908,80.3707 66.2438,80.8187 65.6908,80.8187" id="Fill-36" fill="#FEFEFE" mask="url(#mask-18)"></path>
                <path d="M65.6908,85.2122 L1.0008,85.2122 C0.4478,85.2122 0.0008,84.7642 0.0008,84.2122 C0.0008,83.6602 0.4478,83.2122 1.0008,83.2122 L65.6908,83.2122 C66.2438,83.2122 66.6908,83.6602 66.6908,84.2122 C66.6908,84.7642 66.2438,85.2122 65.6908,85.2122" id="Fill-37" fill="#FEFEFE" mask="url(#mask-18)"></path>
                <path d="M65.6908,89.6053 L1.0008,89.6053 C0.4478,89.6053 0.0008,89.1573 0.0008,88.6053 C0.0008,88.0533 0.4478,87.6053 1.0008,87.6053 L65.6908,87.6053 C66.2438,87.6053 66.6908,88.0533 66.6908,88.6053 C66.6908,89.1573 66.2438,89.6053 65.6908,89.6053" id="Fill-38" fill="#FEFEFE" mask="url(#mask-18)"></path>
            </g>
        </g>
    </g>
</svg>