<?xml version="1.0" encoding="UTF-8"?>
<svg width="67px" height="72px" viewBox="0 0 67 72" version="1.1" xmlns="http://www.w3.org/2000/svg" xmlns:xlink="http://www.w3.org/1999/xlink">
    <!-- Generator: Sketch 52.5 (67469) - http://www.bohemiancoding.com/sketch -->
    <title>Group 23</title>
    <desc>Created with Sketch.</desc>
    <defs>
        <polygon id="path-1" points="0.0004 0.8203 66.69 0.8203 66.69 2.8203 0.0004 2.8203"></polygon>
        <polygon id="path-3" points="0.0004 0.2134 66.69 0.2134 66.69 2.2134 0.0004 2.2134"></polygon>
        <polygon id="path-5" points="0.0004 0.6069 66.69 0.6069 66.69 2.6069 0.0004 2.6069"></polygon>
        <polygon id="path-7" points="0.0004 0 66.69 0 66.69 2 0.0004 2"></polygon>
        <polygon id="path-9" points="0 71.9922 66.69 71.9922 66.69 0.0002 0 0.0002"></polygon>
    </defs>
    <g id="Page-1" stroke="none" stroke-width="1" fill="none" fill-rule="evenodd">
        <g id="07-copy" transform="translate(-236.000000, -468.000000)">
            <g id="Group-23" transform="translate(236.000000, 468.000000)">
                <g id="Group-3" transform="translate(0.000000, 55.992200)">
                    <mask id="mask-2" fill="white">
                        <use xlink:href="#path-1"></use>
                    </mask>
                    <g id="Clip-2"></g>
                    <path d="M65.6904,2.8203 L1.0004,2.8203 C0.4474,2.8203 0.0004,2.3723 0.0004,1.8203 C0.0004,1.2683 0.4474,0.8203 1.0004,0.8203 L65.6904,0.8203 C66.2434,0.8203 66.6904,1.2683 66.6904,1.8203 C66.6904,2.3723 66.2434,2.8203 65.6904,2.8203" id="Fill-1" fill="#FEFEFE" mask="url(#mask-2)"></path>
                </g>
                <g id="Group-6" transform="translate(0.000000, 60.992200)">
                    <mask id="mask-4" fill="white">
                        <use xlink:href="#path-3"></use>
                    </mask>
                    <g id="Clip-5"></g>
                    <path d="M65.6904,2.2134 L1.0004,2.2134 C0.4474,2.2134 0.0004,1.7654 0.0004,1.2134 C0.0004,0.6614 0.4474,0.2134 1.0004,0.2134 L65.6904,0.2134 C66.2434,0.2134 66.6904,0.6614 66.6904,1.2134 C66.6904,1.7654 66.2434,2.2134 65.6904,2.2134" id="Fill-4" fill="#FEFEFE" mask="url(#mask-4)"></path>
                </g>
                <g id="Group-9" transform="translate(0.000000, 64.992200)">
                    <mask id="mask-6" fill="white">
                        <use xlink:href="#path-5"></use>
                    </mask>
                    <g id="Clip-8"></g>
                    <path d="M65.6904,2.6069 L1.0004,2.6069 C0.4474,2.6069 0.0004,2.1589 0.0004,1.6069 C0.0004,1.0549 0.4474,0.6069 1.0004,0.6069 L65.6904,0.6069 C66.2434,0.6069 66.6904,1.0549 66.6904,1.6069 C66.6904,2.1589 66.2434,2.6069 65.6904,2.6069" id="Fill-7" fill="#FEFEFE" mask="url(#mask-6)"></path>
                </g>
                <g id="Group-12" transform="translate(0.000000, 69.992200)">
                    <mask id="mask-8" fill="white">
                        <use xlink:href="#path-7"></use>
                    </mask>
                    <g id="Clip-11"></g>
                    <path d="M65.6904,2 L1.0004,2 C0.4474,2 0.0004,1.552 0.0004,1 C0.0004,0.448 0.4474,0 1.0004,0 L65.6904,0 C66.2434,0 66.6904,0.448 66.6904,1 C66.6904,1.552 66.2434,2 65.6904,2" id="Fill-10" fill="#FEFEFE" mask="url(#mask-8)"></path>
                </g>
                <mask id="mask-10" fill="white">
                    <use xlink:href="#path-9"></use>
                </mask>
                <g id="Clip-14"></g>
                <path d="M2,34.9272 L64.69,34.9272 L64.69,2.0002 L2,2.0002 L2,34.9272 Z M65.69,36.9272 L1,36.9272 C0.447,36.9272 0,36.4792 0,35.9272 L0,1.0002 C0,0.4482 0.447,0.0002 1,0.0002 L65.69,0.0002 C66.243,0.0002 66.69,0.4482 66.69,1.0002 L66.69,35.9272 C66.69,36.4792 66.243,36.9272 65.69,36.9272 Z" id="Fill-13" fill="#FEFEFE" mask="url(#mask-10)"></path>
                <path d="M13.2354,29.7534 L53.4544,29.7534 C53.8974,26.5244 56.4604,23.9614 59.6884,23.5174 L59.6884,13.4084 C56.4604,12.9644 53.8984,10.4014 53.4544,7.1734 L13.2354,7.1734 C12.7914,10.4024 10.2274,12.9654 6.9984,13.4094 L6.9984,23.5174 C10.2284,23.9604 12.7924,26.5234 13.2354,29.7534 M54.3874,31.7534 L12.3074,31.7534 C12.2664,31.7534 12.2244,31.7514 12.1834,31.7454 L12.1794,31.7454 C11.6794,31.6824 11.3034,31.2574 11.3034,30.7534 C11.3034,27.8464 8.9544,25.4794 6.0544,25.4494 C5.9644,25.4564 5.8654,25.4474 5.7694,25.4244 C5.3184,25.3174 4.9984,24.9174 4.9984,24.4534 L4.9984,12.4734 C4.9984,12.0094 5.3174,11.6064 5.7684,11.5004 C5.8724,11.4764 5.9794,11.4674 6.0804,11.4764 C8.9674,11.4334 11.3034,9.0704 11.3034,6.1734 C11.3034,5.6214 11.7514,5.1734 12.3034,5.1734 L54.3874,5.1734 C54.6534,5.1734 54.9074,5.2784 55.0944,5.4664 C55.2824,5.6544 55.3874,5.9084 55.3874,6.1734 C55.3864,7.5904 55.9384,8.9214 56.9394,9.9234 C57.9224,10.9064 59.2214,11.4554 60.6074,11.4764 C61.0814,11.4394 61.5394,11.7534 61.6584,12.2304 C61.6794,12.3154 61.6894,12.4014 61.6884,12.4874 L61.6884,24.4044 C61.6924,24.5004 61.6834,24.5974 61.6594,24.6914 C61.5424,25.1604 61.0694,25.4724 60.6314,25.4494 C57.7474,25.4804 55.4084,27.8244 55.3854,30.7114 C55.3874,30.7654 55.3854,30.8194 55.3794,30.8754 C55.3174,31.3764 54.8924,31.7534 54.3874,31.7534" id="Fill-15" fill="#FEFEFE" mask="url(#mask-10)"></path>
                <path d="M33.3447,11.1885 C29.3337,11.1885 26.0707,14.4525 26.0707,18.4635 C26.0707,22.4745 29.3337,25.7385 33.3447,25.7385 C37.3567,25.7385 40.6197,22.4745 40.6197,18.4635 C40.6197,14.4525 37.3567,11.1885 33.3447,11.1885 M33.3447,27.7385 C28.2307,27.7385 24.0707,23.5775 24.0707,18.4635 C24.0707,13.3495 28.2307,9.1885 33.3447,9.1885 C38.4587,9.1885 42.6197,13.3495 42.6197,18.4635 C42.6197,23.5775 38.4587,27.7385 33.3447,27.7385" id="Fill-16" fill="#FEFEFE" mask="url(#mask-10)"></path>
                <path d="M51.2148,19.4634 L47.3608,19.4634 C46.8078,19.4634 46.3608,19.0154 46.3608,18.4634 C46.3608,17.9114 46.8078,17.4634 47.3608,17.4634 L51.2148,17.4634 C51.7678,17.4634 52.2148,17.9114 52.2148,18.4634 C52.2148,19.0154 51.7678,19.4634 51.2148,19.4634" id="Fill-17" fill="#FEFEFE" mask="url(#mask-10)"></path>
                <path d="M19.3301,19.4634 L15.4751,19.4634 C14.9221,19.4634 14.4751,19.0154 14.4751,18.4634 C14.4751,17.9114 14.9221,17.4634 15.4751,17.4634 L19.3301,17.4634 C19.8831,17.4634 20.3301,17.9114 20.3301,18.4634 C20.3301,19.0154 19.8831,19.4634 19.3301,19.4634" id="Fill-18" fill="#FEFEFE" mask="url(#mask-10)"></path>
                <path d="M65.6904,41.2798 L1.0004,41.2798 C0.4474,41.2798 0.0004,40.8318 0.0004,40.2798 C0.0004,39.7278 0.4474,39.2798 1.0004,39.2798 L65.6904,39.2798 C66.2434,39.2798 66.6904,39.7278 66.6904,40.2798 C66.6904,40.8318 66.2434,41.2798 65.6904,41.2798" id="Fill-19" fill="#FEFEFE" mask="url(#mask-10)"></path>
                <path d="M65.6904,45.6729 L1.0004,45.6729 C0.4474,45.6729 0.0004,45.2249 0.0004,44.6729 C0.0004,44.1209 0.4474,43.6729 1.0004,43.6729 L65.6904,43.6729 C66.2434,43.6729 66.6904,44.1209 66.6904,44.6729 C66.6904,45.2249 66.2434,45.6729 65.6904,45.6729" id="Fill-20" fill="#FEFEFE" mask="url(#mask-10)"></path>
                <path d="M65.6904,50.0664 L1.0004,50.0664 C0.4474,50.0664 0.0004,49.6184 0.0004,49.0664 C0.0004,48.5144 0.4474,48.0664 1.0004,48.0664 L65.6904,48.0664 C66.2434,48.0664 66.6904,48.5144 66.6904,49.0664 C66.6904,49.6184 66.2434,50.0664 65.6904,50.0664" id="Fill-21" fill="#FEFEFE" mask="url(#mask-10)"></path>
                <path d="M65.6904,54.4595 L1.0004,54.4595 C0.4474,54.4595 0.0004,54.0115 0.0004,53.4595 C0.0004,52.9075 0.4474,52.4595 1.0004,52.4595 L65.6904,52.4595 C66.2434,52.4595 66.6904,52.9075 66.6904,53.4595 C66.6904,54.0115 66.2434,54.4595 65.6904,54.4595" id="Fill-22" fill="#FEFEFE" mask="url(#mask-10)"></path>
            </g>
        </g>
    </g>
</svg>