<?xml version="1.0" encoding="UTF-8"?>
<svg width="47px" height="44px" viewBox="0 0 47 44" version="1.1" xmlns="http://www.w3.org/2000/svg" xmlns:xlink="http://www.w3.org/1999/xlink">
    <!-- Generator: Sketch 52.5 (67469) - http://www.bohemiancoding.com/sketch -->
    <title>Group 3</title>
    <desc>Created with Sketch.</desc>
    <defs>
        <polygon id="path-1" points="0.000164132382 3.37268245e-05 46.119 3.37268245e-05 46.119 43.6754 0.000164132382 43.6754"></polygon>
    </defs>
    <g id="Page-1" stroke="none" stroke-width="1" fill="none" fill-rule="evenodd">
        <g id="06" transform="translate(-197.000000, -500.000000)">
            <g id="Group-3" transform="translate(197.000000, 500.000000)">
                <mask id="mask-2" fill="white">
                    <use xlink:href="#path-1"></use>
                </mask>
                <g id="Clip-2"></g>
                <path d="M39.3542,39.2094 L30.2802,39.2094 C30.2082,38.3934 29.7872,37.6804 29.1582,37.2474 C29.3552,36.2594 29.3442,35.3304 29.2392,34.5304 C29.8422,34.3414 30.3622,34.0324 30.7622,33.5764 C32.0242,32.1334 31.7462,29.7374 30.0462,26.9364 C30.5672,26.2794 30.8762,25.4984 30.8762,24.6554 C30.8762,24.3644 30.7582,18.8114 22.9542,16.6474 L22.6202,13.3394 L41.9682,13.3394 L39.3542,39.2094 Z M27.7372,41.5314 L3.8222,41.5314 C3.5902,41.5314 3.4022,41.3064 3.4022,41.0284 L3.4022,39.4504 C3.4022,39.1724 3.5902,38.9464 3.8222,38.9464 L27.7362,38.9464 C27.9692,38.9464 28.1592,39.1724 28.1592,39.4504 L28.1592,40.2764 C28.1592,40.2784 28.1582,40.2804 28.1582,40.2824 C28.1582,40.2844 28.1592,40.2854 28.1592,40.2874 L28.1592,41.0294 C28.1602,41.3054 27.9702,41.5314 27.7372,41.5314 Z M4.4992,36.8014 C4.3492,36.0284 4.3712,35.2924 4.4652,34.6754 C5.6552,34.5484 7.0052,34.1384 8.4682,33.4074 C9.7282,32.7754 10.5362,33.1374 11.9652,33.8914 C13.0202,34.4474 14.2142,35.0774 15.7812,35.0774 C17.3482,35.0774 18.5422,34.4474 19.5972,33.8914 C21.0252,33.1394 21.8312,32.7734 23.0922,33.4074 C24.5702,34.1454 25.9162,34.5604 27.0972,34.6874 C27.1902,35.3074 27.2112,36.0354 27.0632,36.8014 L4.4992,36.8014 Z M3.2222,28.2614 C3.9722,28.6234 4.8332,28.8454 5.7632,28.8454 L25.7962,28.8454 C26.7322,28.8454 27.5972,28.6204 28.3502,28.2564 C29.5862,30.3604 29.5842,31.6644 29.1482,32.1634 C28.5802,32.8104 26.7862,32.8554 24.0512,31.4874 C21.7442,30.3344 19.9992,31.2534 18.5942,31.9934 C17.6802,32.4764 16.8172,32.9324 15.7812,32.9324 C14.7452,32.9324 13.8802,32.4764 12.9652,31.9934 C11.5622,31.2544 9.8192,30.3354 7.5082,31.4874 C4.7792,32.8534 2.9432,32.7954 2.3942,32.1624 C1.9282,31.6254 2.0422,30.2404 3.2222,28.2614 Z M15.7812,17.9374 C28.4502,17.9374 28.7262,24.3924 28.7312,24.6554 C28.7312,25.7634 27.3872,26.7004 25.7962,26.7004 L5.7632,26.7004 C4.1722,26.7004 2.8292,25.7634 2.8292,24.6664 C2.8342,24.3914 3.1112,17.9374 15.7812,17.9374 Z M20.6142,8.9544 L43.9742,8.9544 L43.9742,11.1944 L43.1552,11.1944 L21.4322,11.1944 L20.6152,11.1944 L20.6152,8.9544 L20.6142,8.9544 Z M45.0462,6.8094 L33.0742,6.8094 L33.8612,2.3414 L37.9612,3.1474 C38.5462,3.2574 39.1072,2.8824 39.2212,2.3024 C39.3352,1.7214 38.9582,1.1564 38.3752,1.0424 L33.1792,0.0204 C32.8922,-0.0366 32.5962,0.0274 32.3562,0.1954 C32.1172,0.3624 31.9572,0.6204 31.9122,0.9094 L30.9042,6.8094 L19.5422,6.8094 C18.9492,6.8094 18.4692,7.2894 18.4692,7.8824 L18.4692,12.2674 C18.4692,12.8604 18.9492,13.3394 19.5422,13.3394 L20.4622,13.3394 L20.7482,16.1644 C19.3062,15.9274 17.6622,15.7924 15.7812,15.7924 C0.8552,15.7924 0.6842,24.2944 0.6842,24.6564 C0.6842,25.5044 0.9962,26.2914 1.5232,26.9504 C-0.1918,29.7324 -0.4828,32.1194 0.7742,33.5684 C1.1722,34.0274 1.7042,34.3354 2.3232,34.5234 C2.2162,35.3204 2.2052,36.2544 2.4022,37.2474 C1.7122,37.7234 1.2562,38.5324 1.2562,39.4494 L1.2562,41.0284 C1.2562,42.4884 2.4082,43.6754 3.8222,43.6754 L27.7362,43.6754 C29.0442,43.6754 30.1142,42.6584 30.2722,41.3544 L40.3232,41.3544 C40.8752,41.3544 41.3352,40.9374 41.3902,40.3894 L44.1242,13.3394 L45.0452,13.3394 C45.6382,13.3394 46.1192,12.8594 46.1192,12.2664 L46.1192,7.8814 C46.1192,7.2894 45.6392,6.8094 45.0462,6.8094 Z" id="Fill-1" fill="#FEFEFE" mask="url(#mask-2)"></path>
            </g>
        </g>
    </g>
</svg>