<?xml version="1.0" encoding="UTF-8"?>
<svg width="114px" height="114px" viewBox="0 0 114 114" version="1.1" xmlns="http://www.w3.org/2000/svg" xmlns:xlink="http://www.w3.org/1999/xlink">
    <!-- Generator: Sketch 52.5 (67469) - http://www.bohemiancoding.com/sketch -->
    <title>Group 37</title>
    <desc>Created with Sketch.</desc>
    <defs>
        <polygon id="path-1" points="0 0 113.9998 0 113.9998 114 0 114"></polygon>
    </defs>
    <g id="Page-1" stroke="none" stroke-width="1" fill="none" fill-rule="evenodd">
        <g id="08" transform="translate(-43.000000, -427.000000)">
            <g id="Group-37" transform="translate(43.000000, 427.000000)">
                <mask id="mask-2" fill="white">
                    <use xlink:href="#path-1"></use>
                </mask>
                <g id="Clip-2"></g>
                <path d="M2,112 L56,112 L56,34 L2,34 L2,112 Z M0,113 L0,33 C0,32.447 0.447,32 1,32 L57,32 C57.553,32 58,32.447 58,33 L58,113 C58,113.553 57.553,114 57,114 L1,114 C0.447,114 0,113.553 0,113 Z" id="Fill-1" fill="#FEFEFE" mask="url(#mask-2)"></path>
                <path d="M111.9998,33.46 L84.9998,10.317 L57.9998,33.46 L57.9998,112 L111.9998,112 L111.9998,33.46 Z M55.9998,113 L55.9998,33 C55.9998,32.708 56.1278,32.431 56.3498,32.241 L84.3498,8.241 C84.7248,7.919 85.2758,7.919 85.6508,8.241 L113.6508,32.241 C113.8728,32.431 113.9998,32.708 113.9998,33 L113.9998,113 C113.9998,113.553 113.5528,114 112.9998,114 L56.9998,114 C56.4468,114 55.9998,113.553 55.9998,113 Z" id="Fill-3" fill="#FEFEFE" mask="url(#mask-2)"></path>
                <path d="M34,56 L40,56 L40,46 L34,46 L34,56 Z M32,57 L32,45 C32,44.447 32.447,44 33,44 L41,44 C41.553,44 42,44.447 42,45 L42,57 C42,57.553 41.553,58 41,58 L33,58 C32.447,58 32,57.553 32,57 Z" id="Fill-4" fill="#FEFEFE" mask="url(#mask-2)"></path>
                <path d="M42,56 L48,56 L48,46 L42,46 L42,56 Z M40,57 L40,45 C40,44.447 40.447,44 41,44 L49,44 C49.553,44 50,44.447 50,45 L50,57 C50,57.553 49.553,58 49,58 L41,58 C40.447,58 40,57.553 40,57 Z" id="Fill-5" fill="#FEFEFE" mask="url(#mask-2)"></path>
                <path d="M34,68 L40,68 L40,58 L34,58 L34,68 Z M32,69 L32,57 C32,56.447 32.447,56 33,56 L41,56 C41.553,56 42,56.447 42,57 L42,69 C42,69.553 41.553,70 41,70 L33,70 C32.447,70 32,69.553 32,69 Z" id="Fill-6" fill="#FEFEFE" mask="url(#mask-2)"></path>
                <path d="M42,68 L48,68 L48,58 L42,58 L42,68 Z M40,69 L40,57 C40,56.447 40.447,56 41,56 L49,56 C49.553,56 50,56.447 50,57 L50,69 C50,69.553 49.553,70 49,70 L41,70 C40.447,70 40,69.553 40,69 Z" id="Fill-7" fill="#FEFEFE" mask="url(#mask-2)"></path>
                <path d="M34,88 L40,88 L40,78 L34,78 L34,88 Z M32,89 L32,77 C32,76.447 32.447,76 33,76 L41,76 C41.553,76 42,76.447 42,77 L42,89 C42,89.553 41.553,90 41,90 L33,90 C32.447,90 32,89.553 32,89 Z" id="Fill-8" fill="#FEFEFE" mask="url(#mask-2)"></path>
                <path d="M42,88 L48,88 L48,78 L42,78 L42,88 Z M40,89 L40,77 C40,76.447 40.447,76 41,76 L49,76 C49.553,76 50,76.447 50,77 L50,89 C50,89.553 49.553,90 49,90 L41,90 C40.447,90 40,89.553 40,89 Z" id="Fill-9" fill="#FEFEFE" mask="url(#mask-2)"></path>
                <path d="M34,100 L40,100 L40,90 L34,90 L34,100 Z M32,101 L32,89 C32,88.447 32.447,88 33,88 L41,88 C41.553,88 42,88.447 42,89 L42,101 C42,101.553 41.553,102 41,102 L33,102 C32.447,102 32,101.553 32,101 Z" id="Fill-10" fill="#FEFEFE" mask="url(#mask-2)"></path>
                <path d="M42,100 L48,100 L48,90 L42,90 L42,100 Z M40,101 L40,89 C40,88.447 40.447,88 41,88 L49,88 C49.553,88 50,88.447 50,89 L50,101 C50,101.553 49.553,102 49,102 L41,102 C40.447,102 40,101.553 40,101 Z" id="Fill-11" fill="#FEFEFE" mask="url(#mask-2)"></path>
                <path d="M10,56 L16,56 L16,46 L10,46 L10,56 Z M8,57 L8,45 C8,44.447 8.447,44 9,44 L17,44 C17.553,44 18,44.447 18,45 L18,57 C18,57.553 17.553,58 17,58 L9,58 C8.447,58 8,57.553 8,57 Z" id="Fill-12" fill="#FEFEFE" mask="url(#mask-2)"></path>
                <path d="M18,56 L24,56 L24,46 L18,46 L18,56 Z M16,57 L16,45 C16,44.447 16.447,44 17,44 L25,44 C25.553,44 26,44.447 26,45 L26,57 C26,57.553 25.553,58 25,58 L17,58 C16.447,58 16,57.553 16,57 Z" id="Fill-13" fill="#FEFEFE" mask="url(#mask-2)"></path>
                <path d="M10,68 L16,68 L16,58 L10,58 L10,68 Z M8,69 L8,57 C8,56.447 8.447,56 9,56 L17,56 C17.553,56 18,56.447 18,57 L18,69 C18,69.553 17.553,70 17,70 L9,70 C8.447,70 8,69.553 8,69 Z" id="Fill-14" fill="#FEFEFE" mask="url(#mask-2)"></path>
                <path d="M18,68 L24,68 L24,58 L18,58 L18,68 Z M16,69 L16,57 C16,56.447 16.447,56 17,56 L25,56 C25.553,56 26,56.447 26,57 L26,69 C26,69.553 25.553,70 25,70 L17,70 C16.447,70 16,69.553 16,69 Z" id="Fill-15" fill="#FEFEFE" mask="url(#mask-2)"></path>
                <path d="M10,88 L16,88 L16,78 L10,78 L10,88 Z M8,89 L8,77 C8,76.447 8.447,76 9,76 L17,76 C17.553,76 18,76.447 18,77 L18,89 C18,89.553 17.553,90 17,90 L9,90 C8.447,90 8,89.553 8,89 Z" id="Fill-16" fill="#FEFEFE" mask="url(#mask-2)"></path>
                <path d="M18,88 L24,88 L24,78 L18,78 L18,88 Z M16,89 L16,77 C16,76.447 16.447,76 17,76 L25,76 C25.553,76 26,76.447 26,77 L26,89 C26,89.553 25.553,90 25,90 L17,90 C16.447,90 16,89.553 16,89 Z" id="Fill-17" fill="#FEFEFE" mask="url(#mask-2)"></path>
                <path d="M10,100 L16,100 L16,90 L10,90 L10,100 Z M8,101 L8,89 C8,88.447 8.447,88 9,88 L17,88 C17.553,88 18,88.447 18,89 L18,101 C18,101.553 17.553,102 17,102 L9,102 C8.447,102 8,101.553 8,101 Z" id="Fill-18" fill="#FEFEFE" mask="url(#mask-2)"></path>
                <path d="M18,100 L24,100 L24,90 L18,90 L18,100 Z M16,101 L16,89 C16,88.447 16.447,88 17,88 L25,88 C25.553,88 26,88.447 26,89 L26,101 C26,101.553 25.553,102 25,102 L17,102 C16.447,102 16,101.553 16,101 Z" id="Fill-19" fill="#FEFEFE" mask="url(#mask-2)"></path>
                <path d="M66,56 L72,56 L72,46 L66,46 L66,56 Z M64,57 L64,45 C64,44.447 64.447,44 65,44 L73,44 C73.553,44 74,44.447 74,45 L74,57 C74,57.553 73.553,58 73,58 L65,58 C64.447,58 64,57.553 64,57 Z" id="Fill-20" fill="#FEFEFE" mask="url(#mask-2)"></path>
                <path d="M74,56 L80,56 L80,46 L74,46 L74,56 Z M72,57 L72,45 C72,44.447 72.448,44 73,44 L81,44 C81.553,44 82,44.447 82,45 L82,57 C82,57.553 81.553,58 81,58 L73,58 C72.448,58 72,57.553 72,57 Z" id="Fill-21" fill="#FEFEFE" mask="url(#mask-2)"></path>
                <path d="M66,68 L72,68 L72,58 L66,58 L66,68 Z M64,69 L64,57 C64,56.447 64.447,56 65,56 L73,56 C73.553,56 74,56.447 74,57 L74,69 C74,69.553 73.553,70 73,70 L65,70 C64.447,70 64,69.553 64,69 Z" id="Fill-22" fill="#FEFEFE" mask="url(#mask-2)"></path>
                <path d="M74,68 L80,68 L80,58 L74,58 L74,68 Z M72,69 L72,57 C72,56.447 72.448,56 73,56 L81,56 C81.553,56 82,56.447 82,57 L82,69 C82,69.553 81.553,70 81,70 L73,70 C72.448,70 72,69.553 72,69 Z" id="Fill-23" fill="#FEFEFE" mask="url(#mask-2)"></path>
                <path d="M90,56 L96,56 L96,46 L90,46 L90,56 Z M88,57 L88,45 C88,44.447 88.448,44 89,44 L97,44 C97.553,44 98,44.447 98,45 L98,57 C98,57.553 97.553,58 97,58 L89,58 C88.448,58 88,57.553 88,57 Z" id="Fill-24" fill="#FEFEFE" mask="url(#mask-2)"></path>
                <path d="M98,56 L104,56 L104,46 L98,46 L98,56 Z M96,57 L96,45 C96,44.447 96.448,44 97,44 L105,44 C105.553,44 106,44.447 106,45 L106,57 C106,57.553 105.553,58 105,58 L97,58 C96.448,58 96,57.553 96,57 Z" id="Fill-25" fill="#FEFEFE" mask="url(#mask-2)"></path>
                <path d="M90,68 L96,68 L96,58 L90,58 L90,68 Z M88,69 L88,57 C88,56.447 88.448,56 89,56 L97,56 C97.553,56 98,56.447 98,57 L98,69 C98,69.553 97.553,70 97,70 L89,70 C88.448,70 88,69.553 88,69 Z" id="Fill-26" fill="#FEFEFE" mask="url(#mask-2)"></path>
                <path d="M98,68 L104,68 L104,58 L98,58 L98,68 Z M96,69 L96,57 C96,56.447 96.448,56 97,56 L105,56 C105.553,56 106,56.447 106,57 L106,69 C106,69.553 105.553,70 105,70 L97,70 C96.448,70 96,69.553 96,69 Z" id="Fill-27" fill="#FEFEFE" mask="url(#mask-2)"></path>
                <path d="M66,88 L72,88 L72,78 L66,78 L66,88 Z M64,89 L64,77 C64,76.447 64.448,76 65,76 L73,76 C73.553,76 74,76.447 74,77 L74,89 C74,89.553 73.553,90 73,90 L65,90 C64.448,90 64,89.553 64,89 Z" id="Fill-28" fill="#FEFEFE" mask="url(#mask-2)"></path>
                <path d="M74,88 L80,88 L80,78 L74,78 L74,88 Z M72,89 L72,77 C72,76.447 72.448,76 73,76 L81,76 C81.553,76 82,76.447 82,77 L82,89 C82,89.553 81.553,90 81,90 L73,90 C72.448,90 72,89.553 72,89 Z" id="Fill-29" fill="#FEFEFE" mask="url(#mask-2)"></path>
                <path d="M66,100 L72,100 L72,90 L66,90 L66,100 Z M64,101 L64,89 C64,88.447 64.448,88 65,88 L73,88 C73.553,88 74,88.447 74,89 L74,101 C74,101.553 73.553,102 73,102 L65,102 C64.448,102 64,101.553 64,101 Z" id="Fill-30" fill="#FEFEFE" mask="url(#mask-2)"></path>
                <path d="M74,100 L80,100 L80,90 L74,90 L74,100 Z M72,101 L72,89 C72,88.447 72.448,88 73,88 L81,88 C81.553,88 82,88.447 82,89 L82,101 C82,101.553 81.553,102 81,102 L73,102 C72.448,102 72,101.553 72,101 Z" id="Fill-31" fill="#FEFEFE" mask="url(#mask-2)"></path>
                <path d="M87.9998,29 C87.9998,27.346 86.6538,26 84.9998,26 C83.3458,26 81.9998,27.346 81.9998,29 L81.9998,36 L87.9998,36 L87.9998,29 Z M79.9998,37 L79.9998,29 C79.9998,26.243 82.2428,24 84.9998,24 C87.7568,24 89.9998,26.243 89.9998,29 L89.9998,37 C89.9998,37.553 89.5528,38 88.9998,38 L80.9998,38 C80.4478,38 79.9998,37.553 79.9998,37 Z" id="Fill-32" fill="#FEFEFE" mask="url(#mask-2)"></path>
                <path d="M45.9998,2 L35.9998,2 L35.9998,22.826 L45.9998,14.254 L45.9998,2 Z M34.5818,25.908 C34.2278,25.745 33.9998,25.391 33.9998,25 L33.9998,1 C33.9998,0.447 34.4468,0 34.9998,0 L46.9998,0 C47.5528,0 47.9998,0.447 47.9998,1 L47.9998,14.714 C47.9998,15.006 47.8718,15.283 47.6498,15.473 L35.6498,25.759 C35.4658,25.918 35.2338,26 34.9998,26 C34.8578,26 34.7158,25.97 34.5818,25.908 Z" id="Fill-33" fill="#FEFEFE" mask="url(#mask-2)"></path>
                <path d="M82.2967,10 L47.9997,10 L47.9997,14.714 C47.9997,15.006 47.8717,15.283 47.6507,15.473 L35.6507,25.759 C35.3537,26.014 34.9377,26.072 34.5817,25.908 C34.2277,25.745 33.9997,25.391 33.9997,25 L33.9997,10 L29.3697,10 L3.7027,32 L56.6297,32 L82.2967,10 Z M0.0627,33.347 C-0.0833,32.954 0.0307,32.513 0.3497,32.241 L28.3497,8.241 C28.5297,8.085 28.7617,8 28.9997,8 L34.9997,8 C35.5527,8 35.9997,8.447 35.9997,9 L35.9997,22.826 L45.9997,14.254 L45.9997,9 C45.9997,8.447 46.4467,8 46.9997,8 L84.9997,8 C85.4187,8 85.7927,8.261 85.9387,8.653 C86.0827,9.046 85.9687,9.487 85.6507,9.759 L57.6507,33.759 C57.4697,33.915 57.2377,34 56.9997,34 L0.9997,34 C0.5807,34 0.2067,33.739 0.0627,33.347 Z" id="Fill-34" fill="#FEFEFE" mask="url(#mask-2)"></path>
                <path d="M90,112 L104,112 L104,78 L90,78 L90,112 Z M88,113 L88,77 C88,76.447 88.447,76 89,76 L105,76 C105.553,76 106,76.447 106,77 L106,113 C106,113.553 105.553,114 105,114 L89,114 C88.447,114 88,113.553 88,113 Z" id="Fill-35" fill="#FEFEFE" mask="url(#mask-2)"></path>
                <path d="M98.9998,97.5 C99.5528,97.5 99.9998,97.053 99.9998,96.5 L99.9998,94.5 C99.9998,93.947 99.5528,93.5 98.9998,93.5 C98.4478,93.5 97.9998,93.947 97.9998,94.5 L97.9998,96.5 C97.9998,97.053 98.4478,97.5 98.9998,97.5" id="Fill-36" fill="#FEFEFE" mask="url(#mask-2)"></path>
            </g>
        </g>
    </g>
</svg>