<?xml version="1.0" encoding="UTF-8"?>
<svg width="217px" height="76px" viewBox="0 0 217 76" version="1.1" xmlns="http://www.w3.org/2000/svg" xmlns:xlink="http://www.w3.org/1999/xlink">
    <!-- Generator: Sketch 52.5 (67469) - http://www.bohemiancoding.com/sketch -->
    <title>Group 2</title>
    <desc>Created with Sketch.</desc>
    <g id="Page-1" stroke="none" stroke-width="1" fill="none" fill-rule="evenodd">
        <g id="Splash-Intro" transform="translate(-20.000000, -347.000000)">
            <g id="Group-2" transform="translate(20.000000, 345.000000)">
                <text id="powered-by:" font-family="ChronicaPro-Bold, Chronica Pro" font-size="10" font-weight="bold" fill="#FFFFFF">
                    <tspan x="0" y="10">POWERED BY:</tspan>
                </text>
                <g id="Group-31" transform="translate(0.000000, 16.000000)">
                    <polygon id="Fill-1" fill="#CC383B" points="136.283377 0 136.283377 36.7868302 120 36.7868302 168.842618 62 169.520341 62 217 36.7868302 202.079957 36.7868302 202.079957 0"></polygon>
                    <g id="Group-30" transform="translate(0.000000, 13.000000)" fill="#FEFEFE">
                        <path d="M151.032249,6.70711422 C151.032249,5.43017881 150.262884,4.72912339 149.084474,4.72912339 L147.160534,4.72912339 L147.160534,8.68510506 L149.084474,8.68510506 C150.262884,8.68510506 151.032249,7.98404963 151.032249,6.70711422 Z M149.252718,0.723144531 C152.499477,0.723144531 155.192784,2.65077324 155.192784,6.63193597 C155.192784,9.13580961 154.230638,10.8886306 152.595517,11.7900397 L155.745886,18.2498951 L151.248864,18.2498951 L148.579392,12.5410924 L147.160534,12.5410924 L147.160534,18.2498951 L143,18.2498951 L143,0.723144531 L149.252718,0.723144531 Z" id="Fill-2"></path>
                        <path d="M165.199807,9.0609963 C164.911338,7.90923633 164.646704,6.6822981 164.454275,5.28018725 C164.261846,6.6822981 164.021397,7.90923633 163.732929,9.0609963 L162.915193,12.0655717 L165.993357,12.0655717 L165.199807,9.0609963 Z M166.54646,0.723144531 L171.885403,18.25026 L167.556625,18.25026 L166.859113,15.6212109 L162.073623,15.6212109 L161.376111,18.25026 L157.023148,18.25026 L162.362091,0.723144531 L166.54646,0.723144531 Z" id="Fill-4"></path>
                        <polygon id="Fill-6" points="171.046295 4.8294827 171.046295 0.723144531 182.878055 0.723144531 182.878055 4.8294827 179.030525 4.8294827 179.030525 18.25026 174.894176 18.25026 174.894176 4.8294827"></polygon>
                        <polygon id="Fill-8" points="195.001448 0.723144531 195.001448 4.57913183 189.229977 4.57913183 189.229977 7.55852614 194.448346 7.55852614 194.448346 11.3145191 189.229977 11.3145191 189.229977 14.3442755 195.145857 14.3442755 195.145857 18.25026 185.069443 18.25026 185.069443 0.723144531"></polygon>
                        <path d="M11.1885586,11.033414 L7.50999157,11.033414 L7.73828276,8.825234 L13.7767349,8.825234 L13.7767349,17.272634 C13.1335395,17.649594 12.3514169,17.953214 11.4296161,18.184254 C10.5078153,18.415294 9.56498774,18.530814 8.60075785,18.530814 C6.85853563,18.530814 5.33634406,18.137514 4.03380766,17.349774 C2.73127126,16.562794 1.73362375,15.484354 1.04011418,14.114454 C0.346604598,12.745314 3.75478927e-05,11.221894 3.75478927e-05,9.544194 C3.75478927e-05,7.781374 0.384527969,6.197534 1.15425977,4.794194 C1.92399157,3.390474 2.98960077,2.299494 4.35108736,1.520114 C5.71257395,0.741494 7.23889579,0.351994 8.93042835,0.351994 C9.55635172,0.351994 10.3215778,0.446234 11.2268575,0.634334 C12.1313862,0.822814 12.8969877,1.088054 13.5229111,1.430434 L12.6349034,3.510174 C11.7213632,3.219474 11.0575165,3.026814 10.6429877,2.932574 C10.228459,2.838714 9.67462759,2.791214 8.98149349,2.791214 C7.88171571,2.791214 6.87543218,3.048094 5.96226743,3.561474 C5.0487272,4.074854 4.32142452,4.841314 3.78035939,5.859334 C3.23891877,6.878114 2.96819847,8.097914 2.96819847,9.518354 C2.96819847,10.836574 3.20512567,11.992154 3.67898008,12.984714 C4.15208352,13.977654 4.80766973,14.743734 5.64498774,15.282954 C6.48230575,15.822174 7.44202989,16.091594 8.52453563,16.091594 C9.42080383,16.091594 10.309187,15.972274 11.1885586,15.732114 L11.1885586,11.033414 Z" id="Fill-10"></path>
                        <path d="M21.7136835,16.143008 C22.7451241,16.143008 23.968059,15.569588 25.3378061,14.422748 L25.3378061,5.718088 L28.1831854,5.718088 L28.1831854,18.171448 L25.3378061,18.171448 L25.3378061,16.848288 C24.6274,17.430448 24.2590552,17.726468 23.4134766,18.068848 C22.5675226,18.410848 21.7726337,18.582228 21.02881,18.582228 C18.3223579,18.582228 16.9691318,16.964568 16.9691318,13.729248 L16.9691318,5.718088 L19.8111318,5.718088 L19.8111318,13.549508 C19.8111318,15.278888 20.4453157,16.143008 21.7136835,16.143008" id="Fill-12"></path>
                        <path d="M35.7360192,12.522634 C35.1100958,12.522634 34.6152146,12.715294 34.251751,13.100614 C33.8879119,13.485554 33.7061801,13.960554 33.7061801,14.525614 C33.7061801,14.970594 33.8668851,15.359714 34.188295,15.693734 C34.5093295,16.027374 34.9493908,16.194574 35.507728,16.194574 C36.0318966,16.194574 36.5560651,16.066134 37.0806092,15.809254 C37.6047778,15.552374 38.0782567,15.201634 38.5014215,14.756274 L38.5014215,12.522634 L35.7360192,12.522634 Z M36.2436667,8.003674 C35.1269923,8.003674 33.1756284,8.520474 31.9241571,9.085534 L31.9241571,6.488614 C32.3638429,6.197534 33.0254368,5.941034 33.9472375,5.718354 C34.8690383,5.496054 35.6177433,5.384334 36.1926015,5.384334 C37.1399349,5.384334 38.0065402,5.581554 38.7931686,5.975234 C39.5797969,6.368914 40.2012146,6.903954 40.6577969,7.579974 C41.1147548,8.256374 41.343046,9.013714 41.343046,9.852374 L41.343046,18.171714 L38.5014215,18.171714 L38.5014215,17.278714 C38.0279425,17.740794 37.9941494,17.752194 37.3851226,18.043274 C36.7764713,18.333974 36.167069,18.479514 35.5584176,18.479514 C34.1376054,18.479514 33.0592299,18.120034 32.3236667,17.401074 C31.587728,16.682114 31.2201341,15.723754 31.2201341,14.525614 C31.2201341,13.276174 31.6384176,12.308694 32.4757356,11.623934 C33.3130536,10.939554 34.4165862,10.596794 35.7867088,10.596794 L38.4758889,10.596794 C38.4420958,8.868174 37.6978966,8.003674 36.2436667,8.003674 Z" id="Fill-14"></path>
                        <path d="M49.5512031,8.67122 C48.7394176,9.0991 47.9527893,9.62122 47.2765517,10.23758 L47.2765517,18.1716 L44.4769808,18.1716 L44.4769808,5.71824 L47.2765517,5.71824 L47.2765517,7.5069 C47.8852031,6.99314 48.2445364,6.78832 49.0311648,6.36006 C49.8174176,5.93256 51.0902912,5.60196 51.6824215,5.60196 L51.6824215,8.0294 C51.0733946,8.0294 50.363364,8.24372 49.5512031,8.67122" id="Fill-16"></path>
                        <path d="M58.1985954,12.522634 C57.572672,12.522634 57.0781663,12.715294 56.7143272,13.100614 C56.3504881,13.485554 56.1687563,13.960554 56.1687563,14.525614 C56.1687563,14.970594 56.3294613,15.359714 56.6508713,15.693734 C56.9719057,16.027374 57.4123425,16.194574 57.9703042,16.194574 C58.4944728,16.194574 59.0190169,16.066134 59.5435609,15.809254 C60.067354,15.552374 60.5412084,15.201634 60.9639977,14.756274 L60.9639977,12.522634 L58.1985954,12.522634 Z M58.7062429,8.003674 C57.5895686,8.003674 55.6179287,8.507554 54.3664575,9.072234 L54.3664575,6.488614 C54.8061433,6.197534 55.488013,5.941034 56.4098138,5.718354 C57.3316146,5.496054 58.0803195,5.384334 58.6551778,5.384334 C59.6025111,5.384334 60.469492,5.581554 61.2561203,5.975234 C62.0423732,6.368914 62.6641663,6.903954 63.1207487,7.579974 C63.577331,8.256374 63.8056222,9.013714 63.8056222,9.852374 L63.8056222,18.171714 L60.9639977,18.171714 L60.9639977,17.213734 C60.5340743,17.716094 60.4567257,17.752194 59.8476989,18.043274 C59.2390475,18.333974 58.6300207,18.479514 58.0209939,18.479514 C56.6001816,18.479514 55.5221816,18.120034 54.7862429,17.401074 C54.0506797,16.682114 53.6827103,15.723754 53.6827103,14.525614 C53.6827103,13.276174 54.1009939,12.308694 54.9383119,11.623934 C55.7756299,10.939554 56.8791625,10.596794 58.2492851,10.596794 L60.9388406,10.596794 C60.904672,8.868174 60.1604728,8.003674 58.7062429,8.003674 Z" id="Fill-18"></path>
                        <path d="M72.9937042,7.746832 C71.9615126,7.746832 70.7258115,8.320632 69.3560644,9.467092 L69.3560644,18.171752 L66.5493594,18.171752 L66.5493594,5.718392 L69.3560644,5.718392 L69.3560644,6.883472 C70.0664705,6.301312 70.4475816,6.163752 71.2939111,5.820992 C72.1394897,5.478612 72.9340031,5.307612 73.6785778,5.307612 C75.1159111,5.307612 76.1563632,5.740052 76.7991831,6.604172 C77.4420031,7.468672 77.763413,8.654272 77.763413,10.160592 L77.763413,18.171752 L74.8962559,18.171752 L74.8962559,10.340332 C74.8962559,8.611332 74.262072,7.746832 72.9937042,7.746832" id="Fill-20"></path>
                        <path d="M84.7402621,5.82103 L87.9727602,5.82103 L87.9727602,8.02921 L84.7402621,8.02921 L84.7402621,13.96063 C84.7402621,14.62791 84.8882008,15.16333 85.1844536,15.56537 C85.4799556,15.96779 85.9241471,16.16843 86.5162774,16.16843 C86.9052736,16.16843 88.1146912,15.81845 88.5712736,15.61325 L88.5712736,17.99167 C88.3174498,18.16305 87.966377,18.31277 87.5184307,18.44083 C87.0701088,18.56927 86.6597103,18.63349 86.2879862,18.63349 C84.9178636,18.63349 83.8436184,18.27401 83.0660015,17.55505 C82.2876337,16.83609 81.8986375,15.80097 81.8986375,14.44855 L81.8986375,8.02921 L80.1988444,8.02921 L80.1988444,5.82103 L81.8986375,5.82103 L81.8986375,2.20077 L84.7402621,2.20077 L84.7402621,5.82103 Z" id="Fill-22"></path>
                        <path d="M96.4107103,7.849432 C95.5985494,7.849432 94.9429632,8.106312 94.4443272,8.619692 C93.9453157,9.133072 93.6362966,9.852412 93.5183962,10.776572 L99.2519594,10.776572 C99.0998904,9.818212 98.786741,9.090892 98.3132621,8.593852 C97.8397831,8.097952 97.2055992,7.849432 96.4107103,7.849432 M96.4869326,5.384372 C98.2963655,5.384372 99.6664881,5.992372 100.596925,7.207612 C101.526611,8.423232 101.992205,9.972112 101.992205,11.855012 L101.992205,12.702412 L93.4677065,12.702412 C93.7211548,14.927692 95.0319517,16.040332 97.4000973,16.040332 C98.0598138,16.040332 98.6474383,15.950272 99.1633464,15.770912 C99.6792544,15.591172 101.213837,14.850552 101.941515,14.473972 L101.941515,17.041632 C100.571392,18.000372 99.0067716,18.479552 97.3494077,18.479552 C95.11681,18.479552 93.4125111,17.893592 92.2368866,16.720912 C91.0612621,15.548612 90.4736375,13.952232 90.4736375,11.932152 C90.4736375,10.631412 90.714695,9.488752 91.19681,8.504172 C91.6789249,7.519972 92.3724345,6.754272 93.2773387,6.206312 C94.1818674,5.658352 95.2519824,5.384372 96.4869326,5.384372" id="Fill-24"></path>
                        <path d="M110.085465,7.849432 C109.273304,7.849432 108.617718,8.106312 108.119082,8.619692 C107.62007,9.133072 107.311051,9.852412 107.193151,10.776572 L112.926714,10.776572 C112.774645,9.818212 112.461496,9.090892 111.988017,8.593852 C111.514538,8.097952 110.880354,7.849432 110.085465,7.849432 M110.161687,5.384372 C111.97112,5.384372 113.341243,5.992372 114.27168,7.207612 C115.201366,8.423232 115.666959,9.972112 115.666959,11.855012 L115.666959,12.702412 L107.142461,12.702412 C107.39591,14.927692 108.706707,16.040332 111.074852,16.040332 C111.734569,16.040332 112.322193,15.950272 112.838101,15.770912 C113.354009,15.591172 114.888592,14.928832 115.61627,14.552252 L115.61627,17.041632 C114.246147,18.000372 112.681526,18.479552 111.024162,18.479552 C108.791565,18.479552 107.087266,17.893592 105.911641,16.720912 C104.736017,15.548612 104.148392,13.952232 104.148392,11.932152 C104.148392,10.631412 104.38945,9.488752 104.871565,8.504172 C105.35368,7.519972 106.047189,6.754272 106.952093,6.206312 C107.856622,5.658352 108.926737,5.384372 110.161687,5.384372" id="Fill-26"></path>
                        <path d="M124.013743,16.014606 C124.521391,16.014606 124.986234,15.933666 125.409398,15.770646 C125.831812,15.608386 126.254602,15.346946 126.677766,14.987466 L126.677766,8.876306 C126.271874,8.517206 125.857345,8.256146 125.434556,8.093506 C125.011766,7.930866 124.537912,7.849546 124.013743,7.849546 C122.998824,7.849546 122.199805,8.226126 121.61631,8.979286 C121.032816,9.732826 120.741069,10.699546 120.741069,11.880966 C120.741069,13.130406 121.032816,14.131706 121.61631,14.884866 C122.199805,15.638406 122.998824,16.014606 124.013743,16.014606 Z M129.544548,18.171486 L127.400563,18.171486 L127.388172,17.144346 C126.863628,17.572606 126.301161,17.906246 125.701146,18.145646 C125.100379,18.385426 124.521391,18.505126 123.963054,18.505126 C122.711207,18.505126 121.624571,18.231146 120.70277,17.683566 C119.780969,17.135986 119.070188,16.365726 118.571552,15.372786 C118.07254,14.380226 117.823222,13.224646 117.823222,11.906426 C117.823222,10.605686 118.07254,9.463026 118.571552,8.478446 C119.070188,7.494626 119.789605,6.732346 120.728303,6.193506 C121.667,5.654286 122.761897,5.384486 124.013743,5.384486 C124.402739,5.384486 124.834165,5.457446 125.307644,5.602986 C125.781123,5.748526 126.237705,5.958286 126.677766,6.231886 L126.677766,0.069426 L129.544548,0.069426 L129.544548,18.171486 Z" id="Fill-28"></path>
                    </g>
                </g>
            </g>
        </g>
    </g>
</svg>