<?xml version="1.0" encoding="UTF-8"?>
<svg width="36px" height="43px" viewBox="0 0 36 43" version="1.1" xmlns="http://www.w3.org/2000/svg" xmlns:xlink="http://www.w3.org/1999/xlink">
    <!-- Generator: Sketch 52.5 (67469) - http://www.bohemiancoding.com/sketch -->
    <title>Fill 1</title>
    <desc>Created with Sketch.</desc>
    <g id="Page-1" stroke="none" stroke-width="1" fill="none" fill-rule="evenodd">
        <g id="06" transform="translate(-252.000000, -451.000000)" fill="#FEFEFE">
            <path d="M279.97,490.974 L284.939,490.974 L284.939,464.087 L279.97,464.087 L279.97,490.974 Z M254.103,490.969 L277.866,490.969 L277.866,464.082 L254.103,464.082 L254.103,490.969 Z M261.277,457.811 C261.277,455.215 263.389,453.103 265.985,453.103 C266.662,453.103 267.305,453.25 267.887,453.509 C266.925,454.684 266.346,456.184 266.346,457.817 L266.346,461.978 L261.277,461.978 L261.277,457.811 Z M269.574,454.772 C270.271,455.593 270.693,456.653 270.693,457.812 L270.693,461.978 L268.45,461.978 L268.45,457.817 C268.45,456.656 268.875,455.594 269.574,454.772 Z M277.866,457.817 L277.866,461.978 L272.796,461.978 L272.796,457.811 C272.796,456.182 272.22,454.685 271.262,453.511 C271.843,453.254 272.483,453.109 273.157,453.109 C275.754,453.109 277.866,455.221 277.866,457.817 Z M285.99,461.983 L279.97,461.983 L279.97,457.817 C279.97,454.061 276.914,451.005 273.158,451.005 C271.843,451.005 270.618,451.386 269.576,452.034 C268.531,451.383 267.304,451 265.986,451 C262.229,451 259.173,454.056 259.173,457.811 L259.173,461.978 L253.052,461.978 C252.471,461.978 252,462.449 252,463.03 L252,492.02 C252,492.601 252.471,493.073 253.052,493.073 L278.918,493.073 C278.949,493.073 278.98,493.066 279.011,493.063 C279.06,493.07 279.108,493.078 279.157,493.078 L285.99,493.078 C286.572,493.078 287.042,492.607 287.042,492.026 L287.042,463.035 C287.042,462.454 286.571,461.983 285.99,461.983 Z" id="Fill-1"></path>
        </g>
    </g>
</svg>