<?xml version="1.0" encoding="UTF-8"?>
<svg width="38px" height="26px" viewBox="0 0 38 26" version="1.1" xmlns="http://www.w3.org/2000/svg" xmlns:xlink="http://www.w3.org/1999/xlink">
    <!-- Generator: Sketch 52.5 (67469) - http://www.bohemiancoding.com/sketch -->
    <title>Group 10</title>
    <desc>Created with Sketch.</desc>
    <defs>
        <polygon id="path-1" points="0.0005 0.68 37.9795 0.68 37.9795 25.9999 0.0005 25.9999"></polygon>
    </defs>
    <g id="Page-1" stroke="none" stroke-width="1" fill="none" fill-rule="evenodd">
        <g id="06" transform="translate(-251.000000, -558.000000)">
            <g id="Group-10" transform="translate(251.000000, 557.000000)">
                <g id="Group-3" transform="translate(0.000000, 0.320100)">
                    <mask id="mask-2" fill="white">
                        <use xlink:href="#path-1"></use>
                    </mask>
                    <g id="Clip-2"></g>
                    <path d="M32.7055,23.8899 C31.4825,23.8899 30.3575,23.1749 29.8385,22.0689 L27.0155,16.0569 C26.8415,15.6869 26.4695,15.4499 26.0595,15.4499 L11.9205,15.4499 C11.5115,15.4499 11.1395,15.6869 10.9655,16.0569 L8.1425,22.0689 C7.6225,23.1749 6.4975,23.8899 5.2745,23.8899 C3.5295,23.8899 2.1095,22.4709 2.1095,20.7249 C2.1095,20.4099 2.1555,20.0999 2.2465,19.8019 L6.5125,5.7799 C7.0565,3.9919 8.6785,2.7899 10.5505,2.7899 L27.4305,2.7899 C29.3015,2.7899 30.9245,3.9919 31.4685,5.7799 L35.7335,19.8029 C35.8235,20.0999 35.8705,20.4099 35.8705,20.7249 C35.8705,22.4709 34.4505,23.8899 32.7055,23.8899 M37.7525,19.1879 L33.4865,5.1659 C32.6705,2.4819 30.2365,0.6799 27.4305,0.6799 L10.5505,0.6799 C7.7435,0.6799 5.3095,2.4819 4.4925,5.1659 L0.2275,19.1879 C0.0765,19.6849 0.0005,20.2019 0.0005,20.7249 C0.0005,23.6339 2.3665,25.9999 5.2745,25.9999 C7.3105,25.9999 9.1855,24.8089 10.0515,22.9659 L12.5905,17.5599 L25.3905,17.5599 L27.9285,22.9659 C28.7945,24.8089 30.6695,25.9999 32.7055,25.9999 C35.6135,25.9999 37.9795,23.6339 37.9795,20.7249 C37.9795,20.2019 37.9035,19.6849 37.7525,19.1879" id="Fill-1" fill="#FEFEFE" mask="url(#mask-2)"></path>
                </g>
                <path d="M13.7152,8.3848 L12.6592,8.3848 L12.6592,7.3298 C12.6592,6.7468 12.1882,6.2748 11.6052,6.2748 C11.0222,6.2748 10.5502,6.7468 10.5502,7.3298 L10.5502,8.3848 L9.4952,8.3848 C8.9122,8.3848 8.4402,8.8578 8.4402,9.4398 C8.4402,10.0228 8.9122,10.4948 9.4952,10.4948 L10.5502,10.4948 L10.5502,11.5498 C10.5502,12.1328 11.0222,12.6048 11.6052,12.6048 C12.1882,12.6048 12.6592,12.1328 12.6592,11.5498 L12.6592,10.4948 L13.7152,10.4948 C14.2982,10.4948 14.7702,10.0228 14.7702,9.4398 C14.7702,8.8578 14.2982,8.3848 13.7152,8.3848" id="Fill-4" fill="#FEFEFE"></path>
                <path d="M28.9565,7.4415 C28.4355,7.1805 27.8025,7.3925 27.5415,7.9135 L26.4865,10.0235 C26.2265,10.5445 26.4365,11.1775 26.9585,11.4385 C27.1095,11.5145 27.2705,11.5505 27.4295,11.5505 C27.8155,11.5505 28.1885,11.3365 28.3735,10.9665 L29.4295,8.8575 C29.6895,8.3355 29.4775,7.7025 28.9565,7.4415" id="Fill-6" fill="#FEFEFE"></path>
                <path d="M24.7367,7.4415 C24.2157,7.1805 23.5817,7.3925 23.3217,7.9135 L22.2657,10.0235 C22.0057,10.5445 22.2167,11.1775 22.7387,11.4385 C22.8897,11.5145 23.0497,11.5505 23.2097,11.5505 C23.5957,11.5505 23.9687,11.3365 24.1537,10.9665 L25.2087,8.8575 C25.4687,8.3355 25.2577,7.7025 24.7367,7.4415" id="Fill-8" fill="#FEFEFE"></path>
            </g>
        </g>
    </g>
</svg>