<?xml version="1.0" encoding="UTF-8"?>
<svg width="38px" height="42px" viewBox="0 0 38 42" version="1.1" xmlns="http://www.w3.org/2000/svg" xmlns:xlink="http://www.w3.org/1999/xlink">
    <!-- Generator: Sketch 52.5 (67469) - http://www.bohemiancoding.com/sketch -->
    <title>Group 3</title>
    <desc>Created with Sketch.</desc>
    <defs>
        <polygon id="path-1" points="9.23450747e-05 0 37.483 0 37.483 41.493 9.23450747e-05 41.493"></polygon>
    </defs>
    <g id="Page-1" stroke="none" stroke-width="1" fill="none" fill-rule="evenodd">
        <g id="06" transform="translate(-296.000000, -502.000000)">
            <g id="Group-3" transform="translate(296.000000, 502.000000)">
                <mask id="mask-2" fill="white">
                    <use xlink:href="#path-1"></use>
                </mask>
                <g id="Clip-2"></g>
                <path d="M3.1892,37.241 C2.5962,37.241 2.1262,37.711 2.1262,38.304 C2.1262,38.895 2.5972,39.367 3.1892,39.367 C3.7822,39.367 4.2512,38.897 4.2512,38.304 C4.2512,37.714 3.7792,37.241 3.1892,37.241 Z M19.8062,35.575 L19.8062,40.434 C19.8062,41.019 19.3332,41.493 18.7482,41.493 L18.7392,41.493 C18.1542,41.493 17.6802,41.019 17.6802,40.434 L17.6802,35.575 L6.0882,35.575 L5.6682,36.303 C6.2552,37.024 6.5302,38.009 6.2932,39.051 C6.0252,40.228 5.0532,41.176 3.8712,41.422 C1.5002,41.916 -0.5518,39.757 0.1342,37.366 C0.3902,36.475 1.0582,35.721 1.9162,35.37 C2.5822,35.097 3.2582,35.054 3.8682,35.188 L7.7752,28.421 L3.7902,24.434 C3.3752,24.019 3.3752,23.346 3.7902,22.931 C4.2042,22.517 4.8772,22.517 5.2932,22.931 L15.8092,33.449 L36.4232,33.449 C37.0732,33.449 37.4822,33.976 37.4822,34.608 L37.4822,40.43 C37.4822,41.015 37.0082,41.489 36.4232,41.489 C35.8382,41.489 35.3652,41.015 35.3652,40.43 L35.3652,35.575 L19.8062,35.575 Z M11.1382,12.73 C11.9322,10.119 13.0362,7.435 14.6062,5.184 C10.5652,6.847 6.9012,9.406 4.0522,12.73 L11.1382,12.73 Z M22.8812,5.184 C24.4502,7.43 25.5572,10.125 26.3482,12.73 L33.4352,12.73 C30.5852,9.405 26.9232,6.847 22.8812,5.184 Z M24.1262,12.73 C23.1502,9.706 21.3982,5.743 18.7432,3.862 C16.0892,5.742 14.3362,9.707 13.3622,12.73 L24.1262,12.73 Z M26.9232,14.856 C27.0572,16.179 25.2692,16.71 24.7422,14.856 L19.8062,14.856 L19.8062,33.449 L17.6802,33.449 L17.6802,14.856 L12.7452,14.856 C12.2182,16.71 10.4302,16.179 10.5632,14.856 L2.4172,14.856 C2.2592,15.085 2.1052,15.317 1.9562,15.551 C1.6412,16.044 0.9872,16.189 0.4942,15.875 C0.0012,15.561 -0.1438,14.906 0.1702,14.413 C4.1672,8.16 10.5582,3.828 17.6802,1.91 L17.6802,1.063 C17.6802,0.476 18.1572,0 18.7442,0 C19.3312,0 19.8062,0.476 19.8062,1.063 L19.8062,1.91 C26.9282,3.828 33.3202,8.16 37.3172,14.413 C37.6312,14.906 37.4862,15.561 36.9932,15.875 C36.5002,16.189 35.8452,16.043 35.5312,15.551 C35.3822,15.317 35.2282,15.085 35.0702,14.856 L26.9232,14.856 Z M7.3162,33.449 L12.8032,33.449 L9.3252,29.97 L7.3162,33.449 Z" id="Fill-1" fill="#FEFEFE" mask="url(#mask-2)"></path>
            </g>
        </g>
    </g>
</svg>